<svg width="180" height="52" viewBox="0 0 180 52" fill="none" xmlns="http://www.w3.org/2000/svg">
<path d="M179 46.0031C179 48.7743 176.709 51.0189 173.874 51.0189H6.13243C3.2995 51.0189 1 48.7743 1 46.0031V6.00357C1 3.23374 3.2995 0.981201 6.13243 0.981201H173.873C176.709 0.981201 178.999 3.23374 178.999 6.00357L179 46.0031Z" fill="black"/>
<path d="M173.333 1.04162C176.42 1.04162 178.932 3.4905 178.932 6.5V45.5C178.932 48.5095 176.42 50.9584 173.333 50.9584H6.66667C3.58 50.9584 1.06833 48.5095 1.06833 45.5V6.5C1.06833 3.4905 3.58 1.04162 6.66667 1.04162H173.333ZM173.333 2.74817e-06H6.66667C3.00167 2.74817e-06 0 2.92663 0 6.5V45.5C0 49.0734 3.00167 52 6.66667 52H173.333C176.998 52 180 49.0734 180 45.5V6.5C180 2.92663 176.998 2.74817e-06 173.333 2.74817e-06Z" fill="#A6A6A6"/>
<path d="M40.1714 25.7191C40.1328 21.5292 43.6901 19.4908 43.8528 19.3959C41.8381 16.532 38.7154 16.1407 37.6181 16.1095C34.9954 15.8404 32.4514 17.6396 31.1154 17.6396C29.7528 17.6396 27.6954 16.1355 25.4781 16.1797C22.6248 16.2226 19.9554 17.8333 18.4914 20.3345C15.4701 25.4344 17.7234 32.9289 20.6181 37.0512C22.0661 39.0701 23.7581 41.3243 25.9728 41.245C28.1394 41.1579 28.9488 39.8982 31.5634 39.8982C34.1541 39.8982 34.9141 41.245 37.1728 41.1943C39.4981 41.1579 40.9621 39.1663 42.3594 37.1292C44.0328 34.8152 44.7048 32.5363 44.7314 32.4193C44.6768 32.4011 40.2154 30.741 40.1714 25.7191Z" fill="white"/>
<path d="M35.9048 13.3977C37.0701 11.9768 37.8674 10.0437 37.6461 8.08203C35.9594 8.15483 33.8501 9.21953 32.6354 10.6092C31.5608 11.8338 30.6008 13.841 30.8488 15.7286C32.7434 15.8664 34.6888 14.7965 35.9048 13.3977Z" fill="white"/>
<path d="M71.5269 40.9552H68.4989L66.8402 35.8735H61.0749L59.4949 40.9552H56.5469L62.2589 23.6548H65.7869L71.5269 40.9552ZM66.3402 33.7415L64.8402 29.224C64.6815 28.7625 64.3842 27.6757 63.9455 25.9649H63.8922C63.7175 26.7007 63.4362 27.7875 63.0495 29.224L61.5762 33.7415H66.3402Z" fill="white"/>
<path d="M86.2159 34.5645C86.2159 36.6861 85.6279 38.3631 84.4519 39.5942C83.3985 40.6901 82.0905 41.2374 80.5292 41.2374C78.8439 41.2374 77.6332 40.6472 76.8959 39.4668H76.8425V46.0383H73.9999V32.5872C73.9999 31.2534 73.9639 29.8845 73.8945 28.4805H76.3945L76.5532 30.4578H76.6065C77.5545 28.968 78.9932 28.2244 80.9239 28.2244C82.4332 28.2244 83.6932 28.8055 84.7012 29.969C85.7119 31.1338 86.2159 32.6652 86.2159 34.5645ZM83.3199 34.6659C83.3199 33.4517 83.0399 32.4507 82.4772 31.6629C81.8625 30.8413 81.0372 30.4305 80.0025 30.4305C79.3012 30.4305 78.6639 30.6593 78.0945 31.1104C77.5239 31.5654 77.1505 32.1595 76.9759 32.8953C76.8879 33.2385 76.8439 33.5193 76.8439 33.7403V35.8203C76.8439 36.7277 77.1292 37.4934 77.6999 38.1187C78.2705 38.744 79.0119 39.056 79.9239 39.056C80.9945 39.056 81.8279 38.653 82.4239 37.8496C83.0212 37.0449 83.3199 35.9841 83.3199 34.6659Z" fill="white"/>
<path d="M100.931 34.5645C100.931 36.6861 100.343 38.3631 99.166 39.5942C98.114 40.6901 96.806 41.2374 95.2447 41.2374C93.5593 41.2374 92.3487 40.6472 91.6127 39.4668H91.5593V46.0383H88.7167V32.5872C88.7167 31.2534 88.6807 29.8845 88.6113 28.4805H91.1113L91.27 30.4578H91.3233C92.27 28.968 93.7087 28.2244 95.6407 28.2244C97.1487 28.2244 98.4087 28.8055 99.4193 29.969C100.426 31.1338 100.931 32.6652 100.931 34.5645ZM98.0353 34.6659C98.0353 33.4517 97.754 32.4507 97.1913 31.6629C96.5767 30.8413 95.754 30.4305 94.718 30.4305C94.0153 30.4305 93.3793 30.6593 92.8087 31.1104C92.238 31.5654 91.866 32.1595 91.6913 32.8953C91.6047 33.2385 91.5593 33.5193 91.5593 33.7403V35.8203C91.5593 36.7277 91.8447 37.4934 92.4127 38.1187C92.9833 38.7427 93.7247 39.056 94.6393 39.056C95.71 39.056 96.5433 38.653 97.1393 37.8496C97.7367 37.0449 98.0353 35.9841 98.0353 34.6659Z" fill="white"/>
<path d="M117.385 36.1037C117.385 37.5753 116.861 38.7726 115.809 39.6969C114.653 40.707 113.044 41.2114 110.976 41.2114C109.066 41.2114 107.536 40.8526 106.377 40.1337L107.036 37.8236C108.284 38.5594 109.653 38.9286 111.145 38.9286C112.216 38.9286 113.049 38.692 113.648 38.2214C114.244 37.7508 114.541 37.119 114.541 36.3312C114.541 35.6292 114.296 35.0377 113.804 34.558C113.314 34.0783 112.497 33.6324 111.356 33.2203C108.249 32.0906 106.697 30.4357 106.697 28.2595C106.697 26.8373 107.241 25.6712 108.33 24.7638C109.416 23.8551 110.864 23.4014 112.674 23.4014C114.289 23.4014 115.63 23.6757 116.701 24.223L115.99 26.4824C114.99 25.952 113.86 25.6868 112.594 25.6868C111.594 25.6868 110.813 25.9273 110.253 26.4057C109.78 26.8334 109.542 27.3547 109.542 27.9722C109.542 28.656 109.813 29.2215 110.357 29.6661C110.83 30.0769 111.69 30.5215 112.938 31.0012C114.465 31.6005 115.586 32.3012 116.308 33.1046C117.026 33.9054 117.385 34.9077 117.385 36.1037Z" fill="white"/>
<path d="M126.784 30.5604H123.651V36.6171C123.651 38.1576 124.203 38.9272 125.31 38.9272C125.818 38.9272 126.239 38.8843 126.572 38.7985L126.651 40.9032C126.091 41.1073 125.354 41.21 124.44 41.21C123.318 41.21 122.44 40.8759 121.807 40.209C121.176 39.5408 120.859 38.4202 120.859 36.8459V30.5578H118.992V28.4778H120.859V26.1937L123.651 25.3721V28.4778H126.784V30.5604Z" fill="white"/>
<path d="M140.921 34.6151C140.921 36.5326 140.358 38.1069 139.235 39.338C138.058 40.6055 136.495 41.2373 134.547 41.2373C132.67 41.2373 131.175 40.6302 130.061 39.416C128.946 38.2018 128.389 36.6691 128.389 34.8218C128.389 32.8887 128.962 31.3053 130.113 30.0742C131.261 28.8418 132.81 28.2256 134.758 28.2256C136.635 28.2256 138.146 28.8327 139.286 30.0482C140.377 31.2273 140.921 32.7496 140.921 34.6151ZM137.971 34.7048C137.971 33.5543 137.719 32.5676 137.209 31.7447C136.613 30.7489 135.761 30.2523 134.657 30.2523C133.514 30.2523 132.646 30.7502 132.05 31.7447C131.539 32.5689 131.287 33.5712 131.287 34.7568C131.287 35.9073 131.539 36.894 132.05 37.7156C132.665 38.7114 133.523 39.208 134.631 39.208C135.717 39.208 136.569 38.701 137.183 37.6896C137.707 36.8511 137.971 35.854 137.971 34.7048Z" fill="white"/>
<path d="M150.162 30.918C149.88 30.8673 149.58 30.8413 149.266 30.8413C148.266 30.8413 147.492 31.2092 146.948 31.9463C146.475 32.5963 146.238 33.4179 146.238 34.4098V40.9553H143.396L143.423 32.4091C143.423 30.9713 143.387 29.6622 143.316 28.4818H145.792L145.896 30.8686H145.975C146.275 30.0483 146.748 29.3879 147.396 28.8926C148.03 28.4467 148.714 28.2244 149.451 28.2244C149.714 28.2244 149.951 28.2426 150.162 28.2751V30.918Z" fill="white"/>
<path d="M162.875 34.1276C162.875 34.6242 162.841 35.0428 162.771 35.3847H154.243C154.276 36.6171 154.688 37.5596 155.48 38.2096C156.199 38.7907 157.128 39.0819 158.269 39.0819C159.532 39.0819 160.684 38.8856 161.72 38.4917L162.165 40.4157C160.955 40.9305 159.525 41.1866 157.876 41.1866C155.892 41.1866 154.335 40.6172 153.201 39.4797C152.071 38.3422 151.504 36.8147 151.504 34.8985C151.504 33.0174 152.031 31.4509 153.085 30.2016C154.189 28.8678 155.681 28.2009 157.559 28.2009C159.403 28.2009 160.799 28.8678 161.747 30.2016C162.497 31.2611 162.875 32.5715 162.875 34.1276ZM160.164 33.4087C160.183 32.5871 159.997 31.8773 159.612 31.278C159.12 30.5071 158.364 30.1223 157.347 30.1223C156.417 30.1223 155.661 30.498 155.084 31.252C154.611 31.8513 154.329 32.5702 154.243 33.4074H160.164V33.4087Z" fill="white"/>
<path d="M65.3997 13.0116C65.3997 14.5417 64.9291 15.6935 63.989 16.467C63.1184 17.1807 61.881 17.5382 60.2784 17.5382C59.4837 17.5382 58.8037 17.5044 58.2344 17.4368V9.07646C58.977 8.95946 59.777 8.89966 60.641 8.89966C62.1677 8.89966 63.3184 9.22336 64.0944 9.87076C64.9637 10.6027 65.3997 11.6492 65.3997 13.0116ZM63.9264 13.0493C63.9264 12.0574 63.657 11.2969 63.1184 10.7665C62.5797 10.2374 61.793 9.97216 60.757 9.97216C60.317 9.97216 59.9424 10.0008 59.6317 10.0606V16.4163C59.8037 16.4423 60.1184 16.454 60.5757 16.454C61.645 16.454 62.4704 16.1641 63.0517 15.5843C63.6331 15.0045 63.9264 14.1595 63.9264 13.0493Z" fill="white"/>
<path d="M73.2126 14.3479C73.2126 15.2904 72.9366 16.0626 72.3846 16.6684C71.806 17.2911 71.0393 17.6018 70.082 17.6018C69.1593 17.6018 68.4246 17.3041 67.8766 16.7061C67.33 16.1094 67.0566 15.3567 67.0566 14.4493C67.0566 13.5003 67.338 12.7216 67.9033 12.1171C68.4686 11.5126 69.2286 11.2097 70.186 11.2097C71.1086 11.2097 71.85 11.5074 72.4113 12.1041C72.9446 12.6839 73.2126 13.4327 73.2126 14.3479ZM71.7633 14.3921C71.7633 13.8266 71.638 13.3417 71.3886 12.9374C71.0953 12.4486 70.678 12.2042 70.1353 12.2042C69.574 12.2042 69.1473 12.4486 68.854 12.9374C68.6033 13.3417 68.4793 13.8344 68.4793 14.4168C68.4793 14.9823 68.6046 15.4672 68.854 15.8715C69.1566 16.3603 69.578 16.6047 70.122 16.6047C70.6553 16.6047 71.074 16.3564 71.3753 15.8585C71.634 15.4464 71.7633 14.9576 71.7633 14.3921Z" fill="white"/>
<path d="M83.6867 11.3347L81.7201 17.4629H80.4401L79.6254 14.8018C79.4187 14.1375 79.2507 13.4771 79.1201 12.8219H79.0947C78.9734 13.4953 78.8054 14.1544 78.5894 14.8018L77.7241 17.4629H76.4294L74.5801 11.3347H76.0161L76.7267 14.248C76.8987 14.937 77.0401 15.5935 77.1534 16.2149H77.1787C77.2827 15.7027 77.4547 15.0501 77.6974 14.261L78.5894 11.336H79.7281L80.5827 14.1986C80.7894 14.8967 80.9574 15.5688 81.0867 16.2162H81.1254C81.2201 15.5857 81.3627 14.9136 81.5521 14.1986L82.3147 11.336H83.6867V11.3347Z" fill="white"/>
<path d="M90.9312 17.4627H89.5339V13.9527C89.5339 12.8711 89.1125 12.3303 88.2672 12.3303C87.8525 12.3303 87.5179 12.4785 87.2579 12.7762C87.0005 13.0739 86.8699 13.4249 86.8699 13.8266V17.4614H85.4725V13.0856C85.4725 12.5474 85.4552 11.9637 85.4219 11.3319H86.6499L86.7152 12.29H86.7539C86.9165 11.9923 87.1592 11.7466 87.4779 11.5503C87.8565 11.3215 88.2805 11.2058 88.7445 11.2058C89.3312 11.2058 89.8192 11.3904 90.2072 11.7609C90.6899 12.2146 90.9312 12.8919 90.9312 13.7915V17.4627Z" fill="white"/>
<path d="M94.7847 17.4628H93.3887V8.52271H94.7847V17.4628Z" fill="white"/>
<path d="M103.01 14.3479C103.01 15.2904 102.734 16.0626 102.182 16.6684C101.603 17.2911 100.835 17.6018 99.8789 17.6018C98.9549 17.6018 98.2202 17.3041 97.6735 16.7061C97.1268 16.1094 96.8535 15.3567 96.8535 14.4493C96.8535 13.5003 97.1349 12.7216 97.7002 12.1171C98.2655 11.5126 99.0255 11.2097 99.9815 11.2097C100.906 11.2097 101.646 11.5074 102.208 12.1041C102.742 12.6839 103.01 13.4327 103.01 14.3479ZM101.559 14.3921C101.559 13.8266 101.434 13.3417 101.184 12.9374C100.892 12.4486 100.474 12.2042 99.9322 12.2042C99.3695 12.2042 98.9428 12.4486 98.6508 12.9374C98.4002 13.3417 98.2762 13.8344 98.2762 14.4168C98.2762 14.9823 98.4015 15.4672 98.6508 15.8715C98.9535 16.3603 99.3749 16.6047 99.9189 16.6047C100.452 16.6047 100.87 16.3564 101.171 15.8585C101.431 15.4464 101.559 14.9576 101.559 14.3921Z" fill="white"/>
<path d="M109.773 17.4627H108.519L108.415 16.7568H108.376C107.947 17.3197 107.335 17.6018 106.54 17.6018C105.947 17.6018 105.467 17.4159 105.105 17.0467C104.777 16.7113 104.613 16.294 104.613 15.7987C104.613 15.0499 104.933 14.4792 105.577 14.084C106.22 13.6888 107.124 13.4951 108.288 13.5042V13.3898C108.288 12.5825 107.853 12.1795 106.983 12.1795C106.363 12.1795 105.816 12.3316 105.344 12.6332L105.06 11.7388C105.644 11.3865 106.365 11.2097 107.216 11.2097C108.859 11.2097 109.683 12.0547 109.683 13.7447V16.0015C109.683 16.6138 109.713 17.1013 109.773 17.4627ZM108.323 15.3567V14.4116C106.781 14.3856 106.011 14.7977 106.011 15.6466C106.011 15.9664 106.099 16.2056 106.279 16.3655C106.459 16.5254 106.688 16.6047 106.961 16.6047C107.268 16.6047 107.555 16.5098 107.816 16.3213C108.079 16.1315 108.24 15.891 108.3 15.5959C108.315 15.5296 108.323 15.449 108.323 15.3567Z" fill="white"/>
<path d="M117.713 17.4628H116.473L116.408 16.4787H116.369C115.973 17.2275 115.298 17.6019 114.35 17.6019C113.593 17.6019 112.962 17.312 112.462 16.7322C111.962 16.1524 111.713 15.3997 111.713 14.4754C111.713 13.4835 111.984 12.6801 112.528 12.0665C113.054 11.4945 113.7 11.2085 114.468 11.2085C115.312 11.2085 115.902 11.4854 116.238 12.0405H116.265V8.52271H117.664V15.8118C117.664 16.4085 117.68 16.9584 117.713 17.4628ZM116.265 14.8784V13.8566C116.265 13.6798 116.252 13.5368 116.226 13.4276C116.148 13.1 115.978 12.8244 115.721 12.6021C115.461 12.3798 115.148 12.268 114.786 12.268C114.265 12.268 113.857 12.4695 113.557 12.8738C113.26 13.2781 113.109 13.7942 113.109 14.4247C113.109 15.0305 113.252 15.5219 113.538 15.9002C113.841 16.3032 114.249 16.5047 114.76 16.5047C115.218 16.5047 115.585 16.337 115.864 16.0003C116.133 15.6896 116.265 15.3152 116.265 14.8784Z" fill="white"/>
<path d="M129.664 14.3479C129.664 15.2904 129.388 16.0626 128.836 16.6684C128.257 17.2911 127.492 17.6018 126.533 17.6018C125.612 17.6018 124.877 17.3041 124.328 16.7061C123.781 16.1094 123.508 15.3567 123.508 14.4493C123.508 13.5003 123.789 12.7216 124.354 12.1171C124.92 11.5126 125.68 11.2097 126.638 11.2097C127.56 11.2097 128.302 11.5074 128.862 12.1041C129.396 12.6839 129.664 13.4327 129.664 14.3479ZM128.216 14.3921C128.216 13.8266 128.09 13.3417 127.841 12.9374C127.546 12.4486 127.13 12.2042 126.586 12.2042C126.026 12.2042 125.6 12.4486 125.305 12.9374C125.054 13.3417 124.93 13.8344 124.93 14.4168C124.93 14.9823 125.056 15.4672 125.305 15.8715C125.608 16.3603 126.029 16.6047 126.573 16.6047C127.106 16.6047 127.526 16.3564 127.828 15.8585C128.085 15.4464 128.216 14.9576 128.216 14.3921Z" fill="white"/>
<path d="M137.178 17.4627H135.782V13.9527C135.782 12.8711 135.361 12.3303 134.514 12.3303C134.099 12.3303 133.765 12.4785 133.506 12.7762C133.247 13.0739 133.118 13.4249 133.118 13.8266V17.4614H131.719V13.0856C131.719 12.5474 131.703 11.9637 131.67 11.3319H132.897L132.962 12.29H133.001C133.165 11.9923 133.407 11.7466 133.725 11.5503C134.105 11.3215 134.527 11.2058 134.993 11.2058C135.578 11.2058 136.066 11.3904 136.454 11.7609C136.938 12.2146 137.178 12.8919 137.178 13.7915V17.4627Z" fill="white"/>
<path d="M146.582 12.355H145.043V15.332C145.043 16.0886 145.317 16.4669 145.858 16.4669C146.109 16.4669 146.317 16.4461 146.481 16.4032L146.517 17.4367C146.241 17.5381 145.878 17.5888 145.431 17.5888C144.879 17.5888 144.45 17.425 144.139 17.0974C143.827 16.7698 143.673 16.2186 143.673 15.4451V12.355H142.754V11.3345H143.673V10.2113L145.042 9.80835V11.3333H146.581V12.355H146.582Z" fill="white"/>
<path d="M153.978 17.4628H152.58V13.9788C152.58 12.8803 152.158 12.3304 151.314 12.3304C150.666 12.3304 150.224 12.6489 149.981 13.2859C149.94 13.4198 149.916 13.5836 149.916 13.776V17.4615H148.52V8.52271H149.916V12.216H149.942C150.382 11.5439 151.013 11.2085 151.83 11.2085C152.409 11.2085 152.888 11.3931 153.268 11.7636C153.741 12.2251 153.978 12.9115 153.978 13.8189V17.4628Z" fill="white"/>
<path d="M161.609 14.1087C161.609 14.3531 161.591 14.5585 161.557 14.7262H157.367C157.385 15.332 157.585 15.7935 157.973 16.1133C158.328 16.3993 158.785 16.5423 159.345 16.5423C159.965 16.5423 160.531 16.4461 161.04 16.2524L161.259 17.1988C160.663 17.451 159.961 17.5771 159.149 17.5771C158.176 17.5771 157.409 17.2976 156.855 16.7386C156.297 16.1796 156.021 15.4295 156.021 14.4883C156.021 13.564 156.279 12.7944 156.797 12.1808C157.339 11.5256 158.071 11.198 158.995 11.198C159.899 11.198 160.585 11.5256 161.049 12.1808C161.424 12.7008 161.609 13.3443 161.609 14.1087ZM160.276 13.7564C160.287 13.3521 160.195 13.0037 160.005 12.7099C159.763 12.3316 159.393 12.1418 158.893 12.1418C158.437 12.1418 158.065 12.3264 157.781 12.6969C157.549 12.992 157.412 13.3443 157.367 13.7564H160.276Z" fill="white"/>
</svg>
