<svg width="40" height="40" viewBox="0 0 40 40" fill="none" xmlns="http://www.w3.org/2000/svg">
<mask id="mask0" mask-type="alpha" maskUnits="userSpaceOnUse" x="0" y="0" width="40" height="40">
<rect width="40" height="40" rx="15" fill="#C4C4C4"/>
</mask>
<g mask="url(#mask0)">
<g filter="url(#filter0_d)">
<rect width="40" height="40" rx="15" fill="white"/>
<path d="M34.4599 36.6801C34.4599 44.4231 28.183 50.7001 20.4399 50.7001C12.6969 50.7001 6.41992 44.4231 6.41992 36.6801C6.41992 32.8239 7.97408 30.0144 10.4714 28.1539C12.9873 26.2795 16.5013 25.3401 20.4399 25.3401C24.3786 25.3401 27.8925 26.2795 30.4084 28.1539C32.9058 30.0144 34.4599 32.8239 34.4599 36.6801Z" stroke="#CCCCCC"/>
<path d="M25.5 17.1201C25.5 20.1577 23.0376 22.6201 20 22.6201C16.9624 22.6201 14.5 20.1577 14.5 17.1201C14.5 14.0826 16.9624 11.6201 20 11.6201C23.0376 11.6201 25.5 14.0826 25.5 17.1201Z" stroke="#CCCCCC"/>
</g>
<rect x="0.5" y="0.5" width="39" height="39" rx="14.5" stroke="#CCCCCC"/>
</g>
<defs>
<filter id="filter0_d" x="-1" y="-1" width="62" height="73.2001" filterUnits="userSpaceOnUse" color-interpolation-filters="sRGB">
<feFlood flood-opacity="0" result="BackgroundImageFix"/>
<feColorMatrix in="SourceAlpha" type="matrix" values="0 0 0 0 0 0 0 0 0 0 0 0 0 0 0 0 0 0 127 0"/>
<feOffset dx="10" dy="10"/>
<feGaussianBlur stdDeviation="5.5"/>
<feColorMatrix type="matrix" values="0 0 0 0 0 0 0 0 0 0 0 0 0 0 0 0 0 0 0.25 0"/>
<feBlend mode="normal" in2="BackgroundImageFix" result="effect1_dropShadow"/>
<feBlend mode="normal" in="SourceGraphic" in2="effect1_dropShadow" result="shape"/>
</filter>
</defs>
</svg>
