<svg width="21" height="19" viewBox="0 0 21 19" fill="none" xmlns="http://www.w3.org/2000/svg">
<path d="M18.7629 2.22147L18.763 2.22152C20.6272 4.05941 21.0379 6.93021 19.766 9.19985L19.7647 9.20212C19.5039 9.67325 19.1666 10.1159 18.7628 10.5142L10.7634 18.391C10.7634 18.391 10.7633 18.3911 10.7633 18.3911C10.6899 18.4632 10.5941 18.5 10.4952 18.5C10.3961 18.5 10.3003 18.4632 10.2269 18.391L2.23754 10.5146C2.2375 10.5146 2.23746 10.5146 2.23742 10.5145C1.83429 10.1168 1.49738 9.67466 1.23424 9.19978L1.23312 9.19778C-0.0379483 6.92867 0.373499 4.05909 2.23742 2.22152L2.23786 2.22108C3.33899 1.13283 4.91036 0.5 6.54905 0.5C7.92101 0.5 9.24857 0.943906 10.2936 1.72964L10.5964 1.95729L10.8975 1.72743C13.2346 -0.056742 16.6211 0.109352 18.7629 2.22147ZM10.1441 17.2717L10.4949 17.6175L10.8459 17.2719L18.2276 10.0041C18.5782 9.65917 18.8737 9.27244 19.1051 8.85555C20.2242 6.85772 19.8609 4.34221 18.2271 2.73145C16.1962 0.728948 12.8955 0.728405 10.8645 2.73151C10.7174 2.87633 10.476 2.87631 10.3288 2.73146C9.35306 1.76937 7.97464 1.2277 6.54905 1.2277C5.12456 1.2277 3.74736 1.76879 2.77363 2.73064C1.13941 4.34232 0.775917 6.85788 1.89359 8.85309L1.90382 8.87135L1.90506 8.87319C2.13512 9.28358 2.42718 9.66364 2.77314 10.0049L2.77326 10.005L10.1441 17.2717Z" fill="white" stroke="white"/>
<path d="M11.7243 7.27576V6.77576V6.7244C11.7243 6.04973 11.1747 5.5 10.5 5.5C9.82533 5.5 9.27566 6.04973 9.27566 6.7244V6.77576V7.27576H8.77566H8.72401C8.04966 7.27576 7.50009 7.82513 7.5 8.49967L11.7243 7.27576ZM11.7243 7.27576H12.2243M11.7243 7.27576H12.2243M12.2243 7.27576H12.2753C12.9503 7.27576 13.5 7.82541 13.5 8.49984C13.5 9.17439 12.9501 9.72424 12.2753 9.72424H12.2243H11.7243V10.2242V10.2743C11.7243 10.9508 11.1745 11.5 10.5 11.5C9.8252 11.5 9.27566 10.9505 9.27566 10.2759V10.2242V9.72424M12.2243 7.27576L9.27566 9.72424M9.27566 9.72424H8.77566M9.27566 9.72424H8.77566M8.77566 9.72424H8.72369C8.04974 9.72424 7.50032 9.17491 7.5 8.49984L8.77566 9.72424ZM9.57375 9.5957L9.57504 9.5781C9.57506 9.57748 9.57509 9.57601 9.57509 9.57348C9.57509 9.49049 9.50759 9.42338 9.42538 9.42338H8.72369C8.21386 9.42338 7.79942 9.00958 7.79942 8.49919V8.49849C7.80013 7.98893 8.21455 7.57564 8.72401 7.57564H9.42538C9.50759 7.57564 9.57509 7.50854 9.57509 7.42554V6.72408C9.57509 6.21294 9.9906 5.79988 10.5 5.79988C11.0094 5.79988 11.4249 6.21294 11.4249 6.72408V7.42554C11.4249 7.50854 11.4924 7.57564 11.5746 7.57564H12.2753C12.7846 7.57564 13.2006 7.9882 13.2006 8.49951C13.2006 9.0109 12.7848 9.42371 12.2753 9.42371H11.573C11.533 9.42371 11.4949 9.43965 11.4671 9.46749C11.4391 9.49558 11.4232 9.53396 11.4233 9.57412C11.4233 9.57414 11.4233 9.57415 11.4233 9.57417L11.4249 10.2741L11.4249 10.2753C11.4249 10.7863 11.0092 11.1991 10.5 11.1991C9.99085 11.1991 9.57509 10.7863 9.57509 10.2753L9.57509 10.2753L9.57897 10.2753L9.57375 9.5957ZM9.57375 9.5957L9.57379 9.61445M9.57375 9.5957L9.57379 9.61445M9.57379 9.61445L9.57509 10.2743L9.57379 9.61445Z" fill="white" stroke="white"/>
</svg>
