<svg width="22" height="22" viewBox="0 0 22 22" fill="none" xmlns="http://www.w3.org/2000/svg">
<path d="M8.33398 2.33338V1H11.6674V2.33338" stroke="white" stroke-width="0.869593" stroke-linejoin="round"/>
<path d="M12.3337 5.66675H1V17.6671H12.3337V5.66675Z" stroke="white" stroke-width="0.869593" stroke-linejoin="round"/>
<path d="M12.3337 2.3335H1V21.0008H12.3337V2.3335Z" stroke="white" stroke-width="0.869593" stroke-linejoin="round"/>
<path d="M6.66679 16.3338C8.6919 16.3338 10.3336 14.6921 10.3336 12.667C10.3336 10.6419 8.6919 9.00024 6.66679 9.00024C4.64168 9.00024 3 10.6419 3 12.667C3 14.6921 4.64168 16.3338 6.66679 16.3338Z" stroke="white" stroke-width="0.869593" stroke-linejoin="round"/>
<path d="M6.66797 9.00016V8.82348C6.66825 8.37568 6.79312 7.93679 7.0286 7.5559C7.26408 7.17501 7.60089 6.86715 8.00135 6.66675V6.66675" stroke="white" stroke-width="0.869593" stroke-linejoin="round"/>
<path d="M5.16603 8.50005C4.84594 8.18003 4.66608 7.74597 4.66602 7.29334V7H4.95936C5.41198 7.00007 5.84604 7.17993 6.16606 7.50002C6.48615 7.82004 6.66601 8.2541 6.66608 8.70672V9.00007H6.37274C5.92011 9 5.48605 8.82014 5.16603 8.50005V8.50005Z" stroke="white" stroke-width="0.869593" stroke-linejoin="round"/>
<path d="M6.66797 10.3337C7.28683 10.3337 7.88034 10.5796 8.31794 11.0172C8.75554 11.4548 9.00138 12.0483 9.00138 12.6671" stroke="white" stroke-width="0.869593" stroke-linejoin="round"/>
<path d="M13.666 9.66675H20.9996V20.3338C20.9996 20.5106 20.9293 20.6802 20.8043 20.8052C20.6793 20.9302 20.5097 21.0005 20.3329 21.0005H14.3327C14.1559 21.0005 13.9863 20.9302 13.8613 20.8052C13.7363 20.6802 13.666 20.5106 13.666 20.3338V9.66675Z" stroke="white" stroke-width="0.869593" stroke-linejoin="round"/>
<path d="M20.3334 9.66694V6.3335H19V9.66694" stroke="white" stroke-width="0.869593" stroke-linejoin="round"/>
<path d="M13.666 19.6672H20.9996" stroke="white" stroke-width="0.869593" stroke-linejoin="round"/>
<path d="M13.666 13.0004L14.096 12.5704C14.1707 12.4953 14.2596 12.4358 14.3574 12.3952C14.4552 12.3545 14.5601 12.3337 14.666 12.3337C14.772 12.3337 14.8769 12.3545 14.9747 12.3952C15.0725 12.4358 15.1613 12.4953 15.2361 12.5704L15.4294 12.7638C15.5041 12.8388 15.593 12.8984 15.6908 12.939C15.7886 12.9796 15.8935 13.0005 15.9994 13.0004V13.0004C16.1053 13.0005 16.2102 12.9796 16.3081 12.939C16.4059 12.8984 16.4947 12.8388 16.5694 12.7638L16.7628 12.5704C16.8375 12.4953 16.9263 12.4358 17.0242 12.3952C17.122 12.3545 17.2269 12.3337 17.3328 12.3337V12.3337C17.4387 12.3337 17.5436 12.3545 17.6414 12.3952C17.7393 12.4358 17.8281 12.4953 17.9028 12.5704L18.0962 12.7638C18.1709 12.8388 18.2597 12.8984 18.3575 12.939C18.4554 12.9796 18.5603 13.0005 18.6662 13.0004V13.0004C18.7721 13.0005 18.877 12.9796 18.9748 12.939C19.0726 12.8984 19.1615 12.8388 19.2362 12.7638L19.4295 12.5704C19.5043 12.4953 19.5931 12.4358 19.6909 12.3952C19.7887 12.3545 19.8936 12.3337 19.9996 12.3337V12.3337C20.1055 12.3337 20.2104 12.3545 20.3082 12.3952C20.406 12.4358 20.4949 12.4953 20.5696 12.5704L20.9996 13.0004" stroke="white" stroke-width="0.869593" stroke-linejoin="round"/>
</svg>
