<svg width="26" height="25" viewBox="0 0 26 25" fill="none" xmlns="http://www.w3.org/2000/svg">
<path d="M9.46708 18V18.8667H10.3337V18H9.46708ZM6.22433 18L5.4199 18.3225L5.63805 18.8667H6.22433V18ZM3.59821 11.4492L4.40265 11.1267L4.18449 10.5826H3.59821V11.4492ZM3.46038 11.4492V10.5826H2.5363L2.59549 11.5047L3.46038 11.4492ZM3.59821 18V18.8667H4.46488V18H3.59821ZM1.03739 18H0.170722V18.8667H1.03739V18ZM1.03739 7.39397V6.52731H0.170722V7.39397H1.03739ZM4.26562 7.39397L5.07018 7.07179L4.85214 6.52731H4.26562V7.39397ZM6.84821 13.8432L6.04366 14.1654L6.2617 14.7099H6.84821V13.8432ZM7.02958 13.8432V14.7099H7.96327L7.89384 13.7788L7.02958 13.8432ZM6.90625 7.39397V6.52731H6.03958V7.39397H6.90625ZM9.46708 7.39397H10.3337V6.52731H9.46708V7.39397ZM14.9442 15.0547L14.3253 14.448L14.3222 14.4512L14.9442 15.0547ZM11.0776 15.0402L10.4528 15.6409L10.4588 15.647L11.0776 15.0402ZM14.9297 11.101L14.3049 11.7017L14.3109 11.7078L14.9297 11.101ZM10.4319 18H9.56525V18.8667H10.4319V18ZM10.4319 16.3968V15.5301H9.56525V16.3968H10.4319ZM15.6261 16.3968H16.4928V15.5301H15.6261V16.3968ZM15.6261 18V18.8667H16.4928V18H15.6261ZM12.4559 14.01L11.7001 14.4341L11.7062 14.4451L11.7128 14.4559L12.4559 14.01ZM13.5513 14.01L12.8034 13.5722L12.8 13.578L13.5513 14.01ZM13.5513 12.1456L12.7871 12.5544L12.7928 12.5651L12.7989 12.5756L13.5513 12.1456ZM12.4559 12.1456L11.6991 11.7232L11.6958 11.7294L12.4559 12.1456ZM9.46708 17.1333H6.22433V18.8667H9.46708V17.1333ZM7.02876 17.6775L4.40265 11.1267L2.79378 11.7717L5.4199 18.3225L7.02876 17.6775ZM3.59821 10.5826H3.46038V12.3159H3.59821V10.5826ZM2.59549 11.5047C2.68724 12.9341 2.73155 13.9551 2.73155 14.5831H4.46488C4.46488 13.8957 4.4173 12.8274 4.32527 11.3937L2.59549 11.5047ZM2.73155 14.5831V18H4.46488V14.5831H2.73155ZM3.59821 17.1333H1.03739V18.8667H3.59821V17.1333ZM1.90406 18V7.39397H0.170722V18H1.90406ZM1.03739 8.26064H4.26562V6.52731H1.03739V8.26064ZM3.46107 7.71616L6.04366 14.1654L7.65277 13.521L5.07018 7.07179L3.46107 7.71616ZM6.84821 14.7099H7.02958V12.9765H6.84821V14.7099ZM7.89384 13.7788C7.8129 12.6931 7.77292 11.7091 7.77292 10.8253H6.03958C6.03958 11.7601 6.08182 12.7879 6.16531 13.9076L7.89384 13.7788ZM7.77292 10.8253V7.39397H6.03958V10.8253H7.77292ZM6.90625 8.26064H9.46708V6.52731H6.90625V8.26064ZM8.60041 7.39397V18H10.3337V7.39397H8.60041ZM14.7957 13.0525C14.7957 13.7289 14.6095 14.1581 14.3253 14.448L15.5631 15.6614C16.2365 14.9743 16.5291 14.0688 16.5291 13.0525H14.7957ZM14.3222 14.4512C14.0446 14.7373 13.6401 14.9207 13 14.9207V16.6541C14.0042 16.6541 14.8959 16.3491 15.5662 15.6582L14.3222 14.4512ZM13 14.9207C12.4049 14.9207 11.999 14.742 11.6964 14.4334L10.4588 15.647C11.1331 16.3346 12.0088 16.6541 13 16.6541V14.9207ZM11.7023 14.4395C11.4012 14.1263 11.2188 13.6934 11.2188 13.0525H9.48545C9.48545 14.0559 9.78669 14.9481 10.4528 15.6409L11.7023 14.4395ZM11.2188 13.0525C11.2188 12.3993 11.4005 11.976 11.6851 11.6828L10.4411 10.4757C9.7777 11.1594 9.48545 12.0515 9.48545 13.0525H11.2188ZM11.6851 11.6828C11.9598 11.3996 12.3694 11.2132 13.029 11.2132V9.47987C12.0153 9.47987 11.1143 9.7819 10.4411 10.4757L11.6851 11.6828ZM13.029 11.2132C13.6086 11.2132 14.0056 11.3903 14.305 11.7017L15.5544 10.5003C14.8866 9.80575 14.0164 9.47987 13.029 9.47987V11.2132ZM14.3109 11.7078C14.6163 12.0193 14.7957 12.4396 14.7957 13.0525H16.5291C16.5291 12.0597 16.22 11.179 15.5485 10.4942L14.3109 11.7078ZM11.2986 18V16.3968H9.56525V18H11.2986ZM10.4319 17.2634H15.6261V15.5301H10.4319V17.2634ZM14.7594 16.3968V18H16.4928V16.3968H14.7594ZM15.6261 17.1333H10.4319V18.8667H15.6261V17.1333ZM11.4224 13.0815C11.4224 13.544 11.4775 14.0373 11.7001 14.4341L13.2118 13.586C13.2177 13.5965 13.2006 13.5693 13.1838 13.4759C13.1675 13.3854 13.1557 13.2565 13.1557 13.0815H11.4224ZM11.7128 14.4559C12.0093 14.9502 12.5032 15.1669 13.0145 15.1669V13.4336C12.995 13.4336 13.0274 13.4302 13.0821 13.4586C13.142 13.4897 13.1811 13.5342 13.1991 13.5641L11.7128 14.4559ZM13.0145 15.1669C13.5318 15.1669 14.018 14.937 14.3027 14.4421L12.8 13.578C12.8166 13.5493 12.856 13.5007 12.9216 13.4653C12.983 13.4321 13.0243 13.4336 13.0145 13.4336V15.1669ZM14.2993 14.4479C14.5341 14.0468 14.5921 13.5472 14.5921 13.0815H12.8588C12.8588 13.2549 12.8466 13.3815 12.8301 13.4695C12.8131 13.56 12.7962 13.5845 12.8034 13.5722L14.2993 14.4479ZM14.5921 13.0815C14.5921 12.6131 14.5332 12.117 14.3038 11.7157L12.7989 12.5756C12.795 12.5689 12.8127 12.5982 12.8299 12.6905C12.8466 12.7804 12.8588 12.9082 12.8588 13.0815H14.5921ZM14.3156 11.7369C14.1949 11.5113 14.0163 11.306 13.7691 11.1623C13.5241 11.02 13.2613 10.967 13.0145 10.967V12.7004C13.0154 12.7004 13.0031 12.7005 12.9811 12.6951C12.9584 12.6896 12.9294 12.6791 12.8983 12.661C12.8301 12.6214 12.7965 12.572 12.7871 12.5544L14.3156 11.7369ZM13.0145 10.967C12.4735 10.967 11.9821 11.2162 11.6991 11.7233L13.2127 12.568C13.2018 12.5875 13.1682 12.6331 13.1052 12.6684C13.0454 12.7018 13.0045 12.7004 13.0145 12.7004V10.967ZM11.6958 11.7294C11.4784 12.1263 11.4224 12.6163 11.4224 13.0815H13.1557C13.1557 12.9066 13.1675 12.7766 13.184 12.6841C13.2009 12.589 13.2188 12.557 13.2161 12.5619L11.6958 11.7294ZM22.7573 11.4782L22.3201 12.2266L22.3289 12.2316L22.7573 11.4782ZM23.9035 12.6752L23.1356 13.0771L23.1386 13.0827L23.9035 12.6752ZM23.2433 17.1948L22.6689 16.5458L22.6667 16.5477L23.2433 17.1948ZM16.9754 17.572H16.1088V18.1136L16.5956 18.351L16.9754 17.572ZM16.9754 15.2215L17.3375 14.4341L16.1088 13.8692V15.2215H16.9754ZM18.3973 15.7003L18.1962 16.5434L18.198 16.5438L18.3973 15.7003ZM20.9944 15.5552L21.5273 16.2388L21.5344 16.2331L20.9944 15.5552ZM18.2087 13.5167L17.8233 14.293L18.1397 14.4501L18.4759 14.3412L18.2087 13.5167ZM17.1568 12.9944L16.2923 12.9328L16.2511 13.5123L16.7714 13.7707L17.1568 12.9944ZM17.5558 7.39397V6.52731H16.7487L16.6913 7.33238L17.5558 7.39397ZM23.606 7.39397H24.4727V6.52731H23.606V7.39397ZM23.606 9.78069V10.6474H24.4727V9.78069H23.606ZM19.9933 9.78069V8.91403H19.2037L19.1304 9.70021L19.9933 9.78069ZM19.8627 11.1808L18.9998 11.1003L18.8926 12.2499L20.0264 12.0319L19.8627 11.1808ZM20.668 11.0647L20.6942 11.931L20.7073 11.9306L20.7204 11.9298L20.668 11.0647ZM21.1105 11.9169C21.5785 11.9169 21.9745 12.0247 22.3201 12.2266L23.1944 10.7299C22.5631 10.3611 21.8612 10.1836 21.1105 10.1836V11.9169ZM22.3289 12.2316C22.6732 12.4274 22.9395 12.7024 23.1356 13.0771L24.6713 12.2734C24.3258 11.6131 23.8279 11.09 23.1856 10.7249L22.3289 12.2316ZM23.1386 13.0827C23.3377 13.4566 23.4503 13.91 23.4503 14.4671H25.1836C25.1836 13.67 25.0205 12.9288 24.6684 12.2678L23.1386 13.0827ZM23.4503 14.4671C23.4503 15.468 23.1556 16.115 22.6689 16.5458L23.8177 17.8437C24.7626 17.0074 25.1836 15.8359 25.1836 14.4671H23.4503ZM22.6667 16.5477C22.1793 16.9821 21.3479 17.2784 20.0078 17.2784V19.0118C21.5599 19.0118 22.8855 18.6745 23.8199 17.8418L22.6667 16.5477ZM20.0078 17.2784C18.8497 17.2784 17.9815 17.0984 17.3553 16.793L16.5956 18.351C17.5364 18.8097 18.6897 19.0118 20.0078 19.0118V17.2784ZM17.8421 17.572V15.2215H16.1088V17.572H17.8421ZM16.6134 16.009C17.0937 16.2298 17.6228 16.4066 18.1962 16.5434L18.5984 14.8573C18.1175 14.7426 17.6987 14.6002 17.3375 14.4341L16.6134 16.009ZM18.198 16.5438C18.7698 16.6789 19.2973 16.7556 19.7684 16.7556V15.0223C19.4754 15.0223 19.0888 14.9732 18.5967 14.8569L18.198 16.5438ZM19.7684 16.7556C20.4061 16.7556 21.0327 16.6243 21.5273 16.2387L20.4615 14.8718C20.3854 14.9311 20.1947 15.0223 19.7684 15.0223V16.7556ZM21.5344 16.2331C22.0693 15.8071 22.2891 15.1977 22.2891 14.5541H20.5558C20.5558 14.7908 20.4903 14.8488 20.4544 14.8774L21.5344 16.2331ZM22.2891 14.5541C22.2891 13.9126 22.0448 13.3314 21.5216 12.9215L20.4527 14.2861C20.5098 14.3308 20.5558 14.3831 20.5558 14.5541H22.2891ZM21.5216 12.9215C21.0113 12.5218 20.3423 12.3962 19.6669 12.3962V14.1295C20.1714 14.1295 20.3827 14.2312 20.4527 14.2861L21.5216 12.9215ZM19.6669 12.3962C19.1089 12.3962 18.5318 12.501 17.9415 12.6923L18.4759 14.3412C18.9303 14.1939 19.3253 14.1295 19.6669 14.1295V12.3962ZM18.5941 12.7405L17.5423 12.2182L16.7714 13.7707L17.8233 14.293L18.5941 12.7405ZM18.0213 13.056L18.4203 7.45556L16.6913 7.33238L16.2923 12.9328L18.0213 13.056ZM17.5558 8.26064H23.606V6.52731H17.5558V8.26064ZM22.7394 7.39397V9.78069H24.4727V7.39397H22.7394ZM23.606 8.91403H19.9933V10.6474H23.606V8.91403ZM19.1304 9.70021L18.9998 11.1003L20.7256 11.2613L20.8562 9.86117L19.1304 9.70021ZM20.0264 12.0319C20.4036 11.9593 20.6111 11.9335 20.6942 11.931L20.6417 10.1985C20.4056 10.2056 20.0763 10.2572 19.6991 10.3297L20.0264 12.0319ZM20.7204 11.9298C20.8656 11.921 20.9953 11.9169 21.1105 11.9169V10.1836C20.9548 10.1836 20.7896 10.1891 20.6155 10.1997L20.7204 11.9298Z" fill="white"/>
</svg>
