<svg width="20" height="23" viewBox="0 0 20 23" fill="none" xmlns="http://www.w3.org/2000/svg">
<path d="M18 0.600098H13.2336V1.4001H18C18.2208 1.4001 18.4 1.5801 18.4 1.8001V21.8001C18.4 22.0201 18.2208 22.2001 18 22.2001H1.2C0.9792 22.2001 0.8 22.0201 0.8 21.8001V1.8001C0.8 1.5801 0.9792 1.4001 1.2 1.4001H6V0.600098H1.2C0.5384 0.600098 0 1.1385 0 1.8001V21.8001C0 22.4617 0.5384 23.0001 1.2 23.0001H18C18.6616 23.0001 19.2 22.4617 19.2 21.8001V1.8001C19.2 1.1385 18.6616 0.600098 18 0.600098Z" fill="white"/>
<path d="M17.1984 15.8002C16.9776 15.8002 16.7984 15.621 16.7984 15.4002V3.0002H14.7984C14.5776 3.0002 14.3984 2.821 14.3984 2.6002C14.3984 2.3794 14.5776 2.2002 14.7984 2.2002H17.1984C17.4192 2.2002 17.5984 2.3794 17.5984 2.6002V15.4002C17.5984 15.621 17.4192 15.8002 17.1984 15.8002Z" fill="white"/>
<path d="M13.2016 21.4002H2.00156C1.78076 21.4002 1.60156 21.221 1.60156 21.0002V2.6002C1.60156 2.3794 1.78076 2.2002 2.00156 2.2002H4.40156C4.62236 2.2002 4.80156 2.3794 4.80156 2.6002C4.80156 2.821 4.62236 3.0002 4.40156 3.0002H2.40156V20.6002H13.2016C13.4224 20.6002 13.6016 20.7794 13.6016 21.0002C13.6016 21.221 13.4224 21.4002 13.2016 21.4002Z" fill="white"/>
<path d="M13.2008 21.4001C13.1496 21.4001 13.0976 21.3897 13.048 21.3697C12.8984 21.3081 12.8008 21.1617 12.8008 21.0001V17.0001C12.8008 16.7793 12.98 16.6001 13.2008 16.6001H17.2008C17.3624 16.6001 17.5088 16.6977 17.5704 16.8473C17.6328 16.9969 17.5984 17.1689 17.484 17.2833L13.484 21.2833C13.4072 21.3593 13.3048 21.4001 13.2008 21.4001ZM13.6008 17.4001V20.0345L16.2352 17.4001H13.6008Z" fill="white"/>
<path d="M4.52139 12.6127C4.51819 12.6127 4.51579 12.6127 4.51259 12.6127C4.39899 12.6103 4.29179 12.5599 4.21819 12.4735L3.29579 11.3967C3.15179 11.2295 3.17099 10.9767 3.33899 10.8327C3.50699 10.6887 3.75979 10.7095 3.90299 10.8767L4.53579 11.6143L5.80779 10.2599C5.95899 10.0991 6.21179 10.0911 6.37339 10.2431C6.53499 10.3951 6.54219 10.6479 6.39099 10.8087L4.81339 12.4879C4.73739 12.5671 4.63179 12.6127 4.52139 12.6127Z" fill="white"/>
<path d="M4.52139 8.61272C4.51819 8.61272 4.51579 8.61272 4.51259 8.61272C4.39899 8.61032 4.29179 8.55992 4.21819 8.47352L3.29579 7.39672C3.15179 7.22952 3.17099 6.97672 3.33899 6.83272C3.50699 6.68872 3.75979 6.70952 3.90299 6.87672L4.53579 7.61432L5.80779 6.25992C5.95899 6.09912 6.21179 6.09112 6.37339 6.24312C6.53499 6.39512 6.54219 6.64792 6.39099 6.80872L4.81339 8.48792C4.73739 8.56712 4.63179 8.61272 4.52139 8.61272Z" fill="white"/>
<path d="M10.7992 16.5998H7.59922C7.37842 16.5998 7.19922 16.4206 7.19922 16.1998C7.19922 15.979 7.37842 15.7998 7.59922 15.7998H10.7992C11.02 15.7998 11.1992 15.979 11.1992 16.1998C11.1992 16.4206 11.02 16.5998 10.7992 16.5998Z" fill="white"/>
<path d="M14.7992 15.0002H7.59922C7.37842 15.0002 7.19922 14.821 7.19922 14.6002C7.19922 14.3794 7.37842 14.2002 7.59922 14.2002H14.7992C15.02 14.2002 15.1992 14.3794 15.1992 14.6002C15.1992 14.821 15.02 15.0002 14.7992 15.0002Z" fill="white"/>
<path d="M14.8 11.0002H12.4C12.1792 11.0002 12 10.821 12 10.6002C12 10.3794 12.1792 10.2002 12.4 10.2002H14.8C15.0208 10.2002 15.2 10.3794 15.2 10.6002C15.2 10.821 15.0208 11.0002 14.8 11.0002Z" fill="white"/>
<path d="M13.1992 12.5998H7.59922C7.37842 12.5998 7.19922 12.4206 7.19922 12.1998C7.19922 11.979 7.37842 11.7998 7.59922 11.7998H13.1992C13.42 11.7998 13.5992 11.979 13.5992 12.1998C13.5992 12.4206 13.42 12.5998 13.1992 12.5998Z" fill="white"/>
<path d="M10.7992 11.0002H7.59922C7.37842 11.0002 7.19922 10.821 7.19922 10.6002C7.19922 10.3794 7.37842 10.2002 7.59922 10.2002H10.7992C11.02 10.2002 11.1992 10.3794 11.1992 10.6002C11.1992 10.821 11.02 11.0002 10.7992 11.0002Z" fill="white"/>
<path d="M14.7992 7.0002H7.59922C7.37842 7.0002 7.19922 6.821 7.19922 6.6002C7.19922 6.3794 7.37842 6.2002 7.59922 6.2002H14.7992C15.02 6.2002 15.1992 6.3794 15.1992 6.6002C15.1992 6.821 15.02 7.0002 14.7992 7.0002Z" fill="white"/>
<path d="M11.5992 8.5998H7.59922C7.37842 8.5998 7.19922 8.4206 7.19922 8.1998C7.19922 7.979 7.37842 7.7998 7.59922 7.7998H11.5992C11.82 7.7998 11.9992 7.979 11.9992 8.1998C11.9992 8.4206 11.82 8.5998 11.5992 8.5998Z" fill="white"/>
<path d="M5.19922 16.6002H3.59922C3.37842 16.6002 3.19922 16.421 3.19922 16.2002V14.6002C3.19922 14.3794 3.37842 14.2002 3.59922 14.2002H5.19922C5.42002 14.2002 5.59922 14.3794 5.59922 14.6002V16.2002C5.59922 16.421 5.42002 16.6002 5.19922 16.6002ZM3.99922 15.8002H4.79922V15.0002H3.99922V15.8002Z" fill="white"/>
<path d="M12.2016 4.7998H5.00156C4.78076 4.7998 4.60156 4.6206 4.60156 4.3998V1.9998C4.60156 1.3382 5.13996 0.799805 5.80156 0.799805C6.02236 0.799805 6.20156 0.979005 6.20156 1.1998C6.20156 1.4206 6.02236 1.5998 5.80156 1.5998C5.58076 1.5998 5.40156 1.7798 5.40156 1.9998V3.9998H11.8016V1.9998C11.8016 1.7798 11.6224 1.5998 11.4016 1.5998C11.1808 1.5998 11.0016 1.4206 11.0016 1.1998C11.0016 0.979005 11.1808 0.799805 11.4016 0.799805C12.0632 0.799805 12.6016 1.3382 12.6016 1.9998V4.3998C12.6016 4.6206 12.4224 4.7998 12.2016 4.7998Z" fill="white"/>
<path d="M9.8 1.6C9.5792 1.6 9.4 1.4208 9.4 1.2C9.4 0.98 9.2208 0.8 9 0.8H8.2C8.1136 0.8 8.0312 0.8264 7.9632 0.8776C7.8592 0.9536 7.8 1.0712 7.8 1.2C7.8 1.4208 7.6208 1.6 7.4 1.6C7.1792 1.6 7 1.4208 7 1.2C7 0.82 7.1824 0.4592 7.4872 0.2344C7.6936 0.0816 7.9408 0 8.2 0H9C9.6616 0 10.2 0.5384 10.2 1.2C10.2 1.4208 10.0208 1.6 9.8 1.6Z" fill="white"/>
</svg>
