<svg width="21" height="16" viewBox="0 0 21 16" fill="none" xmlns="http://www.w3.org/2000/svg">
<path d="M21 0H0V15.75H21V0ZM20.125 14.875H0.875V0.875H20.125V14.875Z" fill="white"/>
<path d="M9.625 8.74975C9.625 7.67832 8.84931 6.78844 7.83081 6.60207C8.12744 6.22844 8.3125 5.76251 8.3125 5.24976C8.3125 4.04357 7.33119 3.06226 6.125 3.06226C4.91881 3.06226 3.9375 4.04357 3.9375 5.24976C3.9375 5.76251 4.12212 6.22844 4.41919 6.60207C3.40069 6.78844 2.625 7.67832 2.625 8.74975V11.8123H9.625V8.74975ZM6.125 3.93726C6.84862 3.93726 7.4375 4.52613 7.4375 5.24976C7.4375 5.97338 6.84862 6.56226 6.125 6.56226C5.40137 6.56226 4.8125 5.97338 4.8125 5.24976C4.8125 4.52613 5.40137 3.93726 6.125 3.93726ZM8.75 10.9373H3.5V8.74975C3.5 8.02613 4.08887 7.43726 4.8125 7.43726H7.4375C8.16112 7.43726 8.75 8.02613 8.75 8.74975V10.9373Z" fill="white"/>
<path d="M13.998 4.37488H10.9355V5.24988H13.998V4.37488Z" fill="white"/>
<path d="M18.377 4.37488H15.3145V5.24988H18.377V4.37488Z" fill="white"/>
<path d="M12.248 6.56238H10.9355V7.43738H12.248V6.56238Z" fill="white"/>
<path d="M18.375 6.56238H13.5625V7.43738H18.375V6.56238Z" fill="white"/>
<path d="M14.4355 8.75024H10.9355V9.62524H14.4355V8.75024Z" fill="white"/>
<path d="M18.377 8.75024H16.627V9.62524H18.377V8.75024Z" fill="white"/>
<path d="M11.8105 10.9373H10.9355V11.8123H11.8105V10.9373Z" fill="white"/>
<path d="M13.5645 10.9373H12.6895V11.8123H13.5645V10.9373Z" fill="white"/>
<path d="M15.3125 10.9373H14.4375V11.8123H15.3125V10.9373Z" fill="white"/>
<path d="M18.375 10.9373H17.5V11.8123H18.375V10.9373Z" fill="white"/>
</svg>
