<svg width="22" height="21" viewBox="0 0 22 21" fill="none" xmlns="http://www.w3.org/2000/svg">
<path d="M20.9514 9.44175L19.0826 8.82391C19.0056 8.42617 18.901 8.03455 18.7702 7.6543L20.0824 6.18278L19.9542 5.91893C19.7324 5.46211 19.4751 5.01798 19.1902 4.5988L19.0257 4.35682L17.1044 4.75676C16.8375 4.45002 16.5491 4.16211 16.2432 3.89519L16.6427 1.97385L16.4008 1.80933C15.979 1.52272 15.5348 1.26587 15.0798 1.04534L14.8163 0.918009L13.3457 2.23026C12.9646 2.09943 12.573 1.99485 12.1761 1.91784L11.5582 0.0490071L11.2664 0.0275665C10.7597 -0.00918884 10.2434 -0.00918884 9.73667 0.0275665L9.44481 0.0485696L8.82697 1.91784C8.43054 1.99485 8.03848 2.09943 7.65737 2.23026L6.18584 0.918009L5.92199 1.04622C5.46517 1.26806 5.02104 1.52535 4.60186 1.8102L4.36032 1.97473L4.76026 3.89607C4.45352 4.16298 4.16561 4.45134 3.89869 4.75719L1.97779 4.35726L1.81326 4.59923C1.52666 5.02104 1.26981 5.46517 1.04928 5.92024L0.921947 6.18365L2.23333 7.6543C2.10249 8.03542 1.99792 8.42704 1.9209 8.82391L0.0520701 9.44175L0.0306295 9.73361C0.0122518 9.98696 0 10.2407 0 10.4985C0 10.7562 0.0122518 11.01 0.0306295 11.2633L0.0516325 11.5552L1.92047 12.173C1.99748 12.5708 2.10206 12.9624 2.23289 13.3426L0.920634 14.8142L1.04884 15.078C1.27069 15.5348 1.52797 15.979 1.81283 16.3981L1.97735 16.6401L3.89869 16.2402C4.16561 16.5469 4.45396 16.8348 4.75982 17.1017L4.36032 19.0231L4.6023 19.1876C5.02411 19.4742 5.46824 19.7311 5.9233 19.9516L6.18671 20.0789L7.6578 18.7675C8.03892 18.8984 8.43054 19.003 8.82741 19.08L9.44525 20.9488L9.73711 20.9698C9.99002 20.9877 10.2438 21 10.5015 21C10.7593 21 11.013 20.9877 11.2664 20.9694L11.5582 20.9484L12.1761 19.0795C12.5738 19.0025 12.9655 18.8979 13.3457 18.7671L14.8172 20.0794L15.0811 19.9512C15.5379 19.7293 15.982 19.472 16.4012 19.1872L16.6432 19.0226L16.2432 17.1013C16.55 16.8344 16.8379 16.546 17.1048 16.2402L19.0261 16.6397L19.1907 16.3977C19.4773 15.9759 19.7341 15.5318 19.9547 15.0767L20.082 14.8133L18.7697 13.3426C18.9006 12.9615 19.0051 12.5695 19.0822 12.173L20.951 11.5552L20.972 11.2633C20.9908 11.01 21.0031 10.7562 21.0031 10.4985C21.0031 10.2407 20.9908 9.98696 20.9724 9.73361L20.9514 9.44175ZM20.1174 10.9089L18.3081 11.5071L18.2652 11.7692C18.1817 12.2868 18.0451 12.7966 17.8605 13.2844L17.7668 13.5321L19.0349 14.9551C18.9093 15.1957 18.7719 15.4324 18.6253 15.6626L16.767 15.2758L16.599 15.4814C16.2664 15.8875 15.8914 16.2625 15.4836 16.5964L15.278 16.7644L15.6652 18.6227C15.4355 18.7689 15.1992 18.9058 14.9577 19.0327L13.5347 17.7638L13.2866 17.8583C12.8009 18.0425 12.2912 18.1782 11.7718 18.2626L11.5097 18.3055L10.9115 20.1148C10.6398 20.1284 10.3619 20.1284 10.0902 20.1148L9.49207 18.3055L9.22997 18.2626C8.71189 18.179 8.20213 18.0425 7.71513 17.8579L7.46703 17.7638L6.04407 19.0323C5.80341 18.9067 5.56669 18.7693 5.33653 18.6227L5.72333 16.7644L5.51768 16.5964C5.11162 16.2638 4.73663 15.8888 4.40277 15.481L4.23474 15.2754L2.37641 15.6626C2.23026 15.4329 2.09331 15.1966 1.96641 14.9551L3.23535 13.5321L3.14083 13.284C2.95662 12.7983 2.82097 12.2885 2.73652 11.7692L2.69364 11.5071L0.884316 10.9089C0.879066 10.7733 0.875128 10.6363 0.875128 10.4985C0.875128 10.3606 0.879066 10.2237 0.885629 10.088L2.69496 9.48988L2.73784 9.22778C2.82141 8.70971 2.95793 8.19995 3.14258 7.71294L3.23666 7.46484L1.96816 6.04188C2.09374 5.80122 2.23114 5.5645 2.37772 5.33434L4.23605 5.72115L4.40408 5.51549C4.73663 5.10943 5.11162 4.73444 5.51943 4.40058L5.72508 4.23255L5.33784 2.37422C5.56756 2.22808 5.80385 2.09112 6.04538 1.96422L7.46834 3.23272L7.716 3.13908C8.20388 2.95443 8.71365 2.81835 9.23128 2.73434L9.49338 2.69145L10.0915 0.882129C10.3633 0.868564 10.6411 0.868564 10.9128 0.882129L11.511 2.69145L11.7731 2.73434C12.2912 2.81791 12.8009 2.95443 13.2879 3.13908L13.536 3.23316L14.959 1.96466C15.1997 2.09024 15.4364 2.22764 15.6665 2.37422L15.2797 4.23255L15.4854 4.40058C15.8914 4.73313 16.2664 5.10812 16.6003 5.51593L16.7683 5.72158L18.6267 5.33434C18.7728 5.56406 18.9098 5.80035 19.0367 6.04188L17.7677 7.46484L17.8622 7.71294C18.0464 8.19863 18.1821 8.7084 18.2665 9.22778L18.3094 9.48988L20.1187 10.088C20.124 10.2237 20.1279 10.3606 20.1279 10.4985C20.1279 10.6363 20.124 10.7733 20.1174 10.9089Z" fill="white"/>
<path d="M10.3749 4.37431C8.10436 4.43863 6.19964 6.33809 6.12919 8.60861C6.08719 9.93049 6.63764 11.1859 7.63791 12.0518C8.34589 12.6644 8.75195 13.5225 8.75195 14.4365V14.8741V16.6243H10.0646V17.4995H10.9398V16.6243H12.2525V14.8443V14.4068C12.2525 13.5316 12.6668 12.6657 13.3897 12.0317C14.3357 11.2012 14.8778 10.0049 14.8778 8.74819C14.8778 7.55539 14.407 6.44136 13.5516 5.60999C12.6966 4.77905 11.565 4.35287 10.3749 4.37431ZM11.3773 15.7492H9.62708V14.8741H11.3773V15.7492ZM12.8125 11.3736C12.0162 12.0728 11.516 13.0039 11.4023 13.999H10.9398V9.80447L12.1243 8.61999L11.5055 8.00127L10.5022 9.00461L9.49887 8.00127L8.88016 8.61999L10.0646 9.80447V13.999H9.6052C9.498 13.0096 9.00311 12.0759 8.21025 11.3902C7.40994 10.6971 6.97019 9.69333 7.00345 8.63574C7.05989 6.81985 8.58305 5.30063 10.3994 5.24943C11.3568 5.21662 12.2573 5.57236 12.9416 6.23745C13.626 6.90255 14.0027 7.79387 14.0027 8.74819C14.0027 9.75284 13.5691 10.7098 12.8125 11.3736Z" fill="white"/>
</svg>
