<svg width="19" height="19" viewBox="0 0 19 19" fill="none" xmlns="http://www.w3.org/2000/svg">
<path d="M3.16667 19H15.8333V17.4167H19V12.6667C19 10.3574 17.4709 8.39919 15.3722 7.75002C16.3618 7.11629 17.0208 6.00954 17.0208 4.75C17.0208 2.78588 15.4229 1.1875 13.4583 1.1875C13.1199 1.1875 12.7842 1.23817 12.4565 1.33515C11.7309 0.518542 10.676 0 9.5 0C8.32398 0 7.26908 0.518542 6.54352 1.33515C6.21577 1.23817 5.8801 1.1875 5.54167 1.1875C3.57715 1.1875 1.97917 2.78588 1.97917 4.75C1.97917 6.00954 2.63823 7.11629 3.62781 7.75002C1.5291 8.39919 0 10.3574 0 12.6667V17.4167H3.16667V19ZM15.0417 18.2083H3.95833V17.4167V12.2708C3.95833 12.1386 3.96665 12.008 3.97813 11.8786C3.98208 11.8362 3.98723 11.7942 3.99198 11.7519C4.00267 11.6624 4.01652 11.5742 4.03275 11.4867C4.04106 11.4424 4.04779 11.3976 4.05729 11.3537C4.08183 11.2401 4.11073 11.1285 4.14358 11.018C4.16021 10.9634 4.18 10.9104 4.1986 10.8565C4.21998 10.794 4.24254 10.7322 4.26669 10.6709C4.29004 10.6119 4.31458 10.5533 4.34031 10.4955C4.36565 10.4389 4.39335 10.3835 4.42106 10.3281C4.46144 10.2473 4.50419 10.1682 4.54931 10.0902C4.5889 10.0225 4.62848 9.95481 4.67123 9.8895C4.70448 9.83883 4.7401 9.78975 4.77533 9.74027C4.81254 9.68802 4.85094 9.63656 4.89052 9.58629C4.92694 9.53998 4.96335 9.49406 5.00175 9.44933C5.05162 9.39115 5.10348 9.33494 5.15613 9.27952C5.20481 9.22806 5.25469 9.1774 5.30575 9.12831C5.36869 9.06815 5.43242 9.00917 5.49892 8.95256C5.54246 8.91575 5.58758 8.88052 5.63271 8.84529C5.68456 8.80492 5.73681 8.76533 5.79065 8.72733C5.84052 8.69171 5.8904 8.65648 5.94225 8.62283C5.9945 8.58879 6.04833 8.55752 6.10177 8.52585C6.20271 8.46608 6.30642 8.41027 6.4129 8.35842C6.46633 8.33229 6.51898 8.30498 6.5736 8.28083L6.63733 8.25233C7.1535 8.0366 7.71915 7.91667 8.3125 7.91667H10.6875C11.2809 7.91667 11.8465 8.0366 12.3623 8.25273L12.426 8.28123C12.4806 8.30498 12.5333 8.33269 12.5867 8.35881C12.6932 8.41067 12.7969 8.46648 12.8978 8.52625C12.9517 8.55792 13.0055 8.58919 13.0574 8.62323C13.1088 8.65688 13.1591 8.6921 13.209 8.72773C13.2624 8.76573 13.315 8.80531 13.3669 8.84569C13.412 8.88092 13.4571 8.91615 13.5007 8.95296C13.5672 9.00917 13.6309 9.06854 13.6939 9.12871C13.7453 9.17779 13.7948 9.22846 13.8435 9.27992C13.8961 9.33533 13.9484 9.39154 13.9979 9.44973C14.0359 9.49446 14.0727 9.54037 14.1091 9.58669C14.1487 9.63696 14.1871 9.68842 14.2243 9.74067C14.2595 9.79015 14.2955 9.83883 14.3284 9.8899C14.3711 9.95521 14.4111 10.0229 14.4503 10.0906C14.4954 10.1686 14.5382 10.2481 14.5785 10.3285C14.6063 10.3839 14.634 10.4393 14.6593 10.4959C14.6854 10.5537 14.7096 10.6123 14.7329 10.6713C14.7571 10.7322 14.7792 10.7944 14.801 10.8569C14.8196 10.9108 14.8394 10.9642 14.856 11.0184C14.8893 11.1285 14.9182 11.2405 14.9423 11.3541C14.9518 11.398 14.9589 11.4428 14.9669 11.4871C14.9827 11.5746 14.9969 11.6632 15.0076 11.7523C15.0128 11.7943 15.0179 11.8366 15.0215 11.879C15.0334 12.008 15.0417 12.1386 15.0417 12.2708V17.4167V18.2083ZM18.2083 12.6667V16.625H15.8333V12.2708C15.8333 12.0828 15.8219 11.8976 15.8021 11.7147C15.7973 11.6715 15.7882 11.6296 15.7827 11.5868C15.7637 11.4455 15.7415 11.305 15.7114 11.1676C15.7015 11.1225 15.6881 11.079 15.677 11.0343C15.6437 10.9001 15.6069 10.7675 15.5634 10.6376C15.5487 10.5937 15.5317 10.5509 15.5159 10.5078C15.4692 10.3799 15.4181 10.2541 15.3619 10.1314C15.3421 10.0882 15.3211 10.0455 15.2998 10.0031C15.2408 9.88317 15.1774 9.7664 15.1094 9.652C15.0844 9.61004 15.0595 9.56808 15.033 9.52652C14.9617 9.4145 14.8861 9.30604 14.8069 9.19996C14.778 9.16117 14.7503 9.12198 14.7203 9.08398C14.6336 8.97433 14.5413 8.86944 14.4459 8.76731C14.419 8.73842 14.3941 8.70794 14.3664 8.67983C14.2413 8.55158 14.1107 8.42887 13.9729 8.31448C16.319 8.37742 18.2083 10.3055 18.2083 12.6667ZM12.9529 2.02706C13.1199 1.9954 13.2885 1.97917 13.4583 1.97917C14.9859 1.97917 16.2292 3.22208 16.2292 4.75C16.2292 6.27792 14.9859 7.52083 13.4583 7.52083C12.9149 7.52083 12.392 7.3625 11.9439 7.068C11.9498 7.06365 11.9546 7.0581 11.9601 7.05335C12.3009 6.78221 12.5946 6.45604 12.8305 6.08831C12.8381 6.07644 12.8448 6.06456 12.8523 6.05269C12.9208 5.94344 12.9837 5.83102 13.0415 5.71504C13.051 5.69604 13.0597 5.67704 13.0688 5.65804C13.1215 5.5484 13.1686 5.43598 13.2109 5.32079C13.2196 5.29704 13.2288 5.27329 13.2371 5.24954C13.2755 5.1391 13.3083 5.02629 13.3368 4.9115C13.3439 4.883 13.3523 4.8549 13.3586 4.8264C13.3839 4.71438 13.4029 4.60038 13.4184 4.48479C13.4227 4.45431 13.429 4.42423 13.4322 4.39335C13.4488 4.25085 13.4583 4.10558 13.4583 3.95833C13.4583 3.80158 13.4469 3.648 13.429 3.496C13.4235 3.44771 13.4144 3.40021 13.4069 3.35192C13.3903 3.24583 13.3705 3.14094 13.3459 3.03763C13.334 2.98735 13.3214 2.93748 13.3075 2.888C13.2755 2.7736 13.2379 2.66158 13.1959 2.55194C13.184 2.52146 13.1745 2.49019 13.1622 2.4601C13.1021 2.31365 13.0336 2.17194 12.9568 2.03458C12.9548 2.03181 12.954 2.02944 12.9529 2.02706ZM11.9395 1.94156L11.9637 1.97283C11.9831 1.99698 12.0005 2.02231 12.0191 2.04685C12.221 2.31246 12.3753 2.60181 12.4838 2.907C12.4909 2.92679 12.4988 2.94619 12.5056 2.96638C12.5527 3.10848 12.5883 3.25375 12.6148 3.40179C12.6204 3.43267 12.6247 3.46433 12.6291 3.4956C12.6512 3.648 12.6667 3.80198 12.6667 3.95833C12.6667 4.08817 12.6568 4.21642 12.6409 4.34348C12.6374 4.37317 12.6318 4.40246 12.6275 4.43215C12.6113 4.53704 12.5911 4.64075 12.5645 4.74248C12.559 4.76385 12.5539 4.78562 12.5479 4.807C12.4763 5.06192 12.3741 5.30654 12.2427 5.53454C12.2404 5.5385 12.238 5.54246 12.2356 5.54642C12.1719 5.65606 12.1006 5.76175 12.0238 5.86308C12.0167 5.87219 12.01 5.88169 12.0029 5.89119C11.8418 6.09979 11.6541 6.2886 11.4431 6.45327C11.4309 6.46277 11.4178 6.47188 11.4055 6.48138C11.3078 6.5554 11.2056 6.62427 11.0988 6.68721C11.0798 6.69829 11.062 6.71056 11.0426 6.72125L10.9974 6.74738C10.5509 6.98804 10.0415 7.125 9.5 7.125C8.9585 7.125 8.44906 6.98804 8.00296 6.74738L7.95783 6.72125C7.93883 6.71056 7.92063 6.69829 7.90163 6.68721C7.79475 6.62427 7.69263 6.5554 7.59485 6.48138C7.58219 6.47188 7.56952 6.46277 7.55725 6.45327C7.34667 6.2886 7.15904 6.09979 6.99754 5.89119C6.99042 5.88208 6.98369 5.87258 6.97656 5.86308C6.89977 5.76175 6.82892 5.65606 6.76479 5.54642C6.76242 5.54246 6.76004 5.5385 6.75767 5.53454C6.62585 5.30615 6.52373 5.06152 6.45208 4.8066C6.44615 4.78562 6.441 4.76385 6.43546 4.74288C6.40894 4.64075 6.38875 4.53704 6.37252 4.43215C6.36817 4.40246 6.36263 4.37356 6.35906 4.34348C6.34323 4.21642 6.33333 4.08817 6.33333 3.95833C6.33333 3.80198 6.34877 3.648 6.37094 3.496C6.37569 3.46473 6.37965 3.43346 6.38519 3.40219C6.41171 3.25454 6.44733 3.10888 6.49444 2.96677C6.50117 2.94658 6.50908 2.92719 6.51621 2.9074C6.62467 2.60221 6.77904 2.31246 6.98092 2.04725C6.99952 2.02271 7.01694 1.99698 7.03633 1.97323L7.06048 1.94196C7.64196 1.23975 8.51952 0.791667 9.5 0.791667C10.4805 0.791667 11.358 1.23975 11.9395 1.94156ZM2.77083 4.75C2.77083 3.22208 4.01415 1.97917 5.54167 1.97917C5.71148 1.97917 5.8801 1.9954 6.04715 2.02706C6.04596 2.02944 6.04477 2.03221 6.04358 2.03458C5.96719 2.17154 5.89831 2.31325 5.83815 2.45971C5.82548 2.49019 5.81598 2.52146 5.8041 2.55233C5.76215 2.66198 5.72454 2.774 5.69248 2.888C5.67863 2.93748 5.66596 2.98735 5.65408 3.03763C5.62954 3.14094 5.60975 3.24583 5.59313 3.35192C5.5856 3.39981 5.5769 3.44731 5.57096 3.496C5.55315 3.648 5.54167 3.80158 5.54167 3.95833C5.54167 4.10558 5.55117 4.25085 5.567 4.39375C5.57056 4.42463 5.5769 4.45431 5.58085 4.48479C5.59629 4.60038 5.61569 4.71477 5.64062 4.82679C5.64696 4.85529 5.65527 4.883 5.6624 4.9111C5.6909 5.0259 5.72375 5.1391 5.76215 5.24994C5.77046 5.27408 5.77956 5.29744 5.78827 5.32158C5.83063 5.43638 5.87813 5.54879 5.93038 5.65844C5.93948 5.67744 5.94858 5.69683 5.95808 5.71583C6.01588 5.83181 6.07881 5.94423 6.14729 6.05348C6.15481 6.06535 6.16154 6.07723 6.16906 6.0891C6.40498 6.45683 6.69908 6.7826 7.0395 7.05415C7.04504 7.0589 7.05019 7.06404 7.05573 7.06879C6.60804 7.3625 6.08515 7.52083 5.54167 7.52083C4.01415 7.52083 2.77083 6.27792 2.77083 4.75ZM0.791667 16.625V12.6667C0.791667 10.3055 2.68098 8.37742 5.02748 8.31408C4.88973 8.42848 4.7591 8.55158 4.63402 8.67944C4.60631 8.70754 4.58138 8.73802 4.55446 8.76692C4.45906 8.86904 4.36683 8.97394 4.27975 9.08398C4.25006 9.12158 4.22235 9.16077 4.19346 9.19956C4.1139 9.30565 4.03829 9.4141 3.96704 9.52652C3.94092 9.56808 3.91598 9.60965 3.89065 9.652C3.82256 9.7664 3.75923 9.88317 3.70025 10.0031C3.67927 10.0459 3.65829 10.0882 3.6381 10.1314C3.5815 10.2541 3.53083 10.3799 3.48413 10.5078C3.46829 10.5513 3.45127 10.5937 3.43663 10.6376C3.39308 10.7679 3.35627 10.9005 3.32263 11.035C3.31154 11.0794 3.29848 11.1229 3.28858 11.1676C3.2585 11.3054 3.23633 11.4459 3.21733 11.5876C3.2114 11.6304 3.20269 11.6719 3.19794 11.7151C3.17815 11.8976 3.16667 12.0828 3.16667 12.2708V16.625H0.791667Z" fill="white"/>
</svg>
