<svg width="21" height="21" viewBox="0 0 21 21" fill="none" xmlns="http://www.w3.org/2000/svg">
<path d="M3.5 5.25H0V18.8125C0 20.0187 0.981313 21 2.1875 21H18.8125C20.0187 21 21 20.0187 21 18.8125V0H3.5V5.25ZM0.875 18.8125V6.125H3.5V18.8125C3.5 19.5361 2.91112 20.125 2.1875 20.125C1.46387 20.125 0.875 19.5361 0.875 18.8125ZM4.375 0.875H20.125V18.8125C20.125 19.5361 19.5361 20.125 18.8125 20.125H3.93663C3.94975 20.1079 3.95894 20.0882 3.97119 20.0707C3.99612 20.0353 4.018 19.9981 4.04075 19.9609C4.08712 19.8866 4.12913 19.81 4.16631 19.7299C4.186 19.6879 4.20481 19.6455 4.22144 19.6022C4.25425 19.5173 4.2805 19.4303 4.30281 19.3406C4.31287 19.2994 4.32556 19.2601 4.33344 19.2181C4.35881 19.0864 4.375 18.9516 4.375 18.8125V5.25V0.875Z" fill="white"/>
<path d="M18.375 3.0625H6.125V3.9375H18.375V3.0625Z" fill="white"/>
<path d="M16.625 5.25H7.875V6.125H16.625V5.25Z" fill="white"/>
<path d="M18.375 8.75H13.125V9.625H18.375V8.75Z" fill="white"/>
<path d="M18.375 10.9375H13.125V11.8125H18.375V10.9375Z" fill="white"/>
<path d="M11.375 8.75H6.125V14H11.375V8.75ZM10.5 13.125H7V9.625H10.5V13.125Z" fill="white"/>
<path d="M18.375 13.125H13.125V14H18.375V13.125Z" fill="white"/>
<path d="M11.375 15.3125H6.125V16.1875H11.375V15.3125Z" fill="white"/>
<path d="M18.375 15.3125H13.125V16.1875H18.375V15.3125Z" fill="white"/>
<path d="M11.375 17.5H6.125V18.375H11.375V17.5Z" fill="white"/>
<path d="M18.375 17.5H13.125V18.375H18.375V17.5Z" fill="white"/>
</svg>
