<svg width="23" height="23" viewBox="0 0 23 23" fill="none" xmlns="http://www.w3.org/2000/svg">
<path d="M8.19522 7.56917C8.37429 7.00395 8.59814 6.5415 8.91151 6.18181C9.22489 5.82213 9.6278 5.51384 10.0755 5.3083C10.5232 5.10277 11.0604 5 11.6424 5C12.0901 5 12.5377 5.10277 12.9407 5.25692C13.3436 5.41107 13.7017 5.66798 14.0151 5.92489C14.3285 6.18181 14.5523 6.59288 14.7314 7.00395C14.9105 7.41502 15 7.92886 15 8.49407C15 9.21344 14.8657 9.77866 14.5971 10.2925C14.3285 10.8063 13.9703 11.2688 13.5674 11.7312C13.2093 12.1423 12.9407 12.4506 12.7616 12.6561C12.5377 12.8617 12.4034 13.1186 12.3139 13.3241C12.2244 13.5296 12.1348 13.7866 12.1348 14.0949C12.0901 14.4032 12.0901 14.6087 12.0901 15.1739H11.0604C11.0604 14.6087 11.0604 14.3518 11.1499 13.9921C11.1947 13.581 11.329 13.2727 11.4633 12.913C11.5976 12.6047 11.8215 12.2964 12.0453 11.9881C12.3139 11.6798 12.5825 11.3715 12.9407 11.0119C13.254 10.7036 13.5226 10.3439 13.7017 9.93281C13.9256 9.52174 14.0151 9.05929 14.0151 8.59684C14.0151 8.23715 13.9703 7.87747 13.836 7.56917C13.7017 7.26087 13.5226 7.00395 13.3436 6.74703C13.1645 6.49012 12.8959 6.33597 12.5825 6.2332C12.3139 6.13043 12.0005 6.02767 11.6871 6.02767C11.2395 6.02767 10.8365 6.13043 10.5232 6.28458C10.165 6.43874 9.89642 6.69565 9.67257 7.00395C9.44873 7.31225 9.26966 7.67194 9.18012 8.083C9.09058 8.49407 9.00105 8.85375 9.04582 9.3162H8.01615C7.97138 8.59683 8.01614 8.13439 8.19522 7.56917ZM10.8813 16.5613H12.1348V18H10.8813V16.5613Z" fill="white"/>
<circle cx="11.5" cy="11.5" r="11" stroke="white"/>
</svg>
