<svg width="18" height="18" viewBox="0 0 18 18" fill="none" xmlns="http://www.w3.org/2000/svg">
<path d="M14.8919 5.65093C15.0211 5.75309 15.1749 5.80266 15.3277 5.80266C15.5353 5.80266 15.7408 5.71115 15.8796 5.53576C16.1205 5.23121 16.0689 4.78902 15.7644 4.5481L10.2098 0.153654C9.90529 -0.0872317 9.46314 -0.0356936 9.22219 0.268824C8.98126 0.573376 9.03284 1.01556 9.33735 1.25648L9.71366 1.55418L0.65741 13.0253C0.149904 13.6715 -0.075619 14.4767 0.0224299 15.2925C0.120479 16.1083 0.530358 16.837 1.17652 17.3445C1.73887 17.7862 2.4083 18.0003 3.0733 18.0003C3.98323 18.0002 4.88466 17.5994 5.49063 16.8319L7.22334 14.7213C7.46975 14.4212 7.42619 13.9781 7.12603 13.7317C6.82588 13.4853 6.38281 13.5289 6.13647 13.829L4.39933 15.945C4.39613 15.9489 4.39293 15.9529 4.38981 15.9569C3.82109 16.681 2.76924 16.8075 2.04511 16.2387C1.69432 15.9632 1.47182 15.5675 1.4186 15.1247C1.36537 14.6818 1.48778 14.2447 1.76221 13.8953L6.15289 8.33386H10.4146L8.23695 11.0979C7.99663 11.4029 8.04908 11.845 8.35412 12.0853C8.48307 12.1869 8.63646 12.2361 8.78879 12.2361C8.9968 12.2361 9.20281 12.1442 9.34154 11.9681L14.5388 5.37151L14.8919 5.65093ZM11.5226 6.9276H7.2631L10.8165 2.42671L13.4359 4.49906L11.5226 6.9276ZM17.0011 10.4596C16.5475 9.78652 16.0995 9.24411 16.0807 9.22133C15.9471 9.06 15.7486 8.96663 15.5391 8.96663C15.3297 8.96663 15.1311 9.06 14.9975 9.22133C14.9787 9.24407 14.5308 9.78649 14.0771 10.4596C13.1818 11.7882 13.0782 12.4107 13.0782 12.7634C13.0782 14.1204 14.1821 15.2243 15.5391 15.2243C16.896 15.2243 18 14.1204 18 12.7634C18 12.4107 17.8965 11.7882 17.0011 10.4596ZM15.5391 13.8181C14.9576 13.8181 14.4844 13.345 14.4844 12.7634C14.4844 12.7235 14.5056 12.3421 15.2372 11.2544C15.3395 11.1025 15.4423 10.9567 15.5391 10.8233C15.634 10.9539 15.7345 11.0965 15.8349 11.2455C16.5725 12.3399 16.5938 12.7233 16.5938 12.7634C16.5938 13.345 16.1207 13.8181 15.5391 13.8181Z" fill="white"/>
</svg>
