<svg width="18" height="32" viewBox="0 0 18 32" fill="none" xmlns="http://www.w3.org/2000/svg">
<path d="M1.43416 17.2323H4.94184V31.2217C4.94184 31.4979 5.17284 31.7217 5.45797 31.7217H11.4054C11.6905 31.7217 11.9215 31.4979 11.9215 31.2217V17.2982H15.954C16.2162 17.2982 16.4368 17.1076 16.4667 16.8553L17.0792 11.7051C17.096 11.5634 17.0497 11.4215 16.9518 11.3152C16.8538 11.2088 16.7137 11.1479 16.5665 11.1479H11.9218V7.91949C11.9218 6.94632 12.4627 6.4528 13.5297 6.4528C13.6817 6.4528 16.5665 6.4528 16.5665 6.4528C16.8517 6.4528 17.0827 6.2289 17.0827 5.95281V1.22537C17.0827 0.949154 16.8517 0.725373 16.5665 0.725373H12.3812C12.3517 0.72398 12.2862 0.72168 12.1895 0.72168C11.4633 0.72168 8.93915 0.859787 6.94522 2.63678C4.73597 4.606 5.04309 6.96376 5.11647 7.37257V11.1478H1.43409C1.14897 11.1478 0.917969 11.3716 0.917969 11.6478V16.7322C0.918031 17.0084 1.14903 17.2323 1.43416 17.2323Z" fill="white"/>
</svg>
