<svg width="21" height="19" viewBox="0 0 21 19" fill="none" xmlns="http://www.w3.org/2000/svg">
<path d="M19.114 1.86545C16.7918 -0.424477 13.1259 -0.602818 10.5941 1.33C9.46037 0.477591 8.02681 0 6.54905 0C4.78545 0 3.08576 0.680114 1.88639 1.86545C-0.136777 3.86002 -0.585009 6.97516 0.796893 9.44214C1.08404 9.96032 1.45042 10.4405 1.88639 10.8706L9.87621 18.7474C10.0474 18.9158 10.271 19 10.4952 19C10.7193 19 10.9429 18.9158 11.1141 18.7474L19.114 10.8702C19.5504 10.4396 19.9172 9.95902 20.2022 9.4443C21.5849 6.97689 21.1376 3.86045 19.114 1.86545ZM18.6684 8.61218C18.4609 8.98614 18.1948 9.33504 17.877 9.64768L10.4952 16.9156L3.12428 9.64898C2.80562 9.33461 2.53948 8.98614 2.332 8.61218C2.33112 8.61089 2.33068 8.61002 2.32981 8.60873C1.32304 6.8115 1.64958 4.54143 3.12472 3.08664C3.99886 2.223 5.24725 1.7277 6.54905 1.7277C7.85172 1.7277 9.10143 2.22343 9.97776 3.0875C10.3196 3.42432 10.8738 3.42432 11.2156 3.0875C13.0519 1.27645 16.0398 1.27689 17.8761 3.0875C19.3508 4.54143 19.6773 6.81193 18.6684 8.61218Z" fill="white"/>
</svg>
