<svg width="23" height="22" viewBox="0 0 23 22" fill="none" xmlns="http://www.w3.org/2000/svg">
<path d="M11.5983 14.6671C13.6234 14.6671 15.265 13.0255 15.265 11.0004C15.265 8.97536 13.6234 7.33374 11.5983 7.33374C9.57326 7.33374 7.93164 8.97536 7.93164 11.0004C7.93164 13.0255 9.57326 14.6671 11.5983 14.6671Z" fill="#323232"/>
<path d="M16.1801 0H7.01341C3.47599 0 0.597656 2.87925 0.597656 6.41758V15.5842C0.597656 19.1217 3.47691 22 7.01524 22H16.1819C19.7193 22 22.5977 19.1208 22.5977 15.5824V6.41575C22.5977 2.87833 19.7184 0 16.1801 0ZM11.5977 16.5C8.56441 16.5 6.09766 14.0332 6.09766 11C6.09766 7.96675 8.56441 5.5 11.5977 5.5C14.6309 5.5 17.0977 7.96675 17.0977 11C17.0977 14.0332 14.6309 16.5 11.5977 16.5ZM18.0143 5.5C17.5083 5.5 17.0977 5.08933 17.0977 4.58333C17.0977 4.07733 17.5083 3.66667 18.0143 3.66667C18.5203 3.66667 18.931 4.07733 18.931 4.58333C18.931 5.08933 18.5203 5.5 18.0143 5.5Z" fill="#323232"/>
</svg>
