<svg width="240" height="80" viewBox="0 0 240 80" fill="none" xmlns="http://www.w3.org/2000/svg">
<rect width="240" height="80" rx="15" fill="white"/>
<path d="M74.0473 18.1384C99.5941 15.978 81.7678 39.5701 60.0378 56.292C81.3774 35.5517 88.7942 24.9655 79.5991 20.6014C70.8377 16.4101 27.6815 34.1258 27.855 52.8785C27.8983 60.1376 35.9224 61.2178 44.7705 57.5018C45.8548 57.0265 47.2428 55.7735 47.4596 54.6068C47.8066 52.7056 46.3753 50.8477 44.6837 49.0761C44.4669 48.8168 44.6837 48.3847 45.0307 48.5144C51.927 51.323 56.6547 51.6686 61.4258 45.5762C62.2499 44.4959 63.5077 43.9342 62.0764 46.3971C53.7053 60.7425 32.9296 65.2795 28.2887 59.0574C15.3201 41.7306 61.1222 19.089 74.0473 18.1384Z" fill="#2B7CAC"/>
<path d="M55.1804 32.5706C57.3924 33.3483 59.1707 34.9903 61.4261 35.7248C65.5032 37.0211 70.2742 36.9779 74.5682 36.6322C75.0887 36.589 75.5658 37.0643 75.4356 37.5828C75.3923 37.8853 75.2622 38.1445 75.132 38.447C71.5321 38.0581 66.9345 37.9717 63.7683 39.4408C60.4285 40.9531 58.043 43.6753 54.3563 44.1074C51.4503 44.4531 48.4576 43.6753 45.6817 44.4963C43.9901 45.0148 42.5588 46.0518 40.9974 46.8728C39.7395 47.5209 38.3082 48.0826 36.9203 47.9962C36.4432 47.953 36.1396 47.4345 36.3564 47.0024C37.7878 43.8481 39.6528 41.1692 41.5178 38.231C42.3853 36.8483 43.5564 34.9903 44.8142 33.9101C47.6335 31.4039 51.8407 31.4039 55.1804 32.5706Z" fill="#83C2D9"/>
<path d="M77.1699 48.6442V47.9529H80.5097C81.2904 47.9529 81.8976 48.1257 82.288 48.4714C82.6783 48.8171 82.8952 49.2924 82.8952 49.8973C82.8952 50.0269 82.8952 50.1565 82.8518 50.2862C82.8084 50.4158 82.7651 50.5886 82.7217 50.7615C82.6349 50.9343 82.5482 51.0639 82.4181 51.1936C82.288 51.3232 82.1145 51.4528 81.8542 51.5824C82.1145 51.6689 82.288 51.7553 82.4614 51.8849C82.6349 52.0145 82.7651 52.1874 82.8518 52.317C82.9386 52.4898 83.0253 52.6627 83.0687 52.8787C83.112 53.0948 83.1554 53.2676 83.1554 53.4404C83.1554 53.7429 83.112 54.0454 82.9819 54.3046C82.8518 54.5639 82.7217 54.7799 82.5048 54.9527C82.288 55.1256 82.0711 55.2552 81.8108 55.3848C81.5506 55.4712 81.2904 55.5145 80.9868 55.5145H77.1699V54.8231H77.9506V48.6442H77.1699ZM81.941 49.9405C81.941 49.5516 81.8108 49.2491 81.594 48.9899C81.3771 48.7306 80.9868 48.6442 80.4663 48.6442H78.8615V51.2368H80.4663C80.9434 51.2368 81.3337 51.1071 81.594 50.8911C81.8108 50.6318 81.941 50.3294 81.941 49.9405ZM82.1578 53.3972C82.1578 53.2244 82.1145 53.0515 82.0711 52.8355C82.0277 52.6627 81.8976 52.4898 81.7675 52.3602C81.6374 52.2306 81.4639 52.1009 81.2904 52.0577C81.1169 52.0145 80.8566 51.9281 80.5964 51.9281H78.8181V54.8231H80.5964C80.8566 54.8231 81.1169 54.7799 81.2904 54.6935C81.5072 54.6071 81.6374 54.5206 81.7675 54.391C81.8976 54.2614 81.9843 54.0886 82.0277 53.9157C82.1578 53.7429 82.1578 53.5701 82.1578 53.3972Z" fill="#2B7CAC"/>
<path d="M86.4957 49.9836C87.1029 49.9836 87.6668 50.0701 88.1005 50.2861V51.712H87.4065V50.8478C87.2764 50.8046 87.1463 50.8046 87.0162 50.7614C86.8861 50.7614 86.7559 50.7182 86.6692 50.7182C86.062 50.7182 85.6282 50.891 85.368 51.2799C85.1078 51.6688 84.9343 52.1873 84.9343 52.8354C84.9343 53.4836 85.0644 53.9589 85.2813 54.3045C85.4981 54.6502 85.9319 54.823 86.4523 54.823C86.7559 54.823 87.0162 54.7798 87.2764 54.7366C87.5367 54.6934 87.7969 54.607 88.1005 54.4774L88.3174 55.1255C88.1005 55.2551 87.7969 55.3848 87.4499 55.428C87.1029 55.5144 86.7559 55.5576 86.409 55.5576C85.9319 55.5576 85.5849 55.4712 85.2813 55.3416C84.9776 55.2119 84.7174 54.9959 84.5439 54.7798C84.3704 54.5206 84.2403 54.2613 84.1536 53.9157C84.0668 53.57 84.0234 53.2243 84.0234 52.8354C84.0234 52.533 84.0668 52.2305 84.1102 51.8848C84.1536 51.5392 84.2837 51.2367 84.4572 50.9342C84.6307 50.6318 84.8909 50.4157 85.1945 50.1997C85.5849 50.0701 85.9752 49.9836 86.4957 49.9836Z" fill="#2B7CAC"/>
<path d="M91.482 49.9836C91.8289 49.9836 92.1326 50.0269 92.3928 50.1133C92.653 50.1997 92.8265 50.3293 93 50.5021C93.1735 50.675 93.3036 50.8478 93.3904 51.0207C93.4771 51.1935 93.5639 51.4095 93.6072 51.5824C93.6506 51.7552 93.694 51.9713 93.694 52.1441C93.694 52.3169 93.694 52.4466 93.694 52.5762V53.0515H90.094C90.094 53.3107 90.1374 53.57 90.1808 53.786C90.2241 54.0021 90.3109 54.2181 90.441 54.3478C90.5711 54.5206 90.7012 54.6502 90.9181 54.7366C91.135 54.823 91.3518 54.8663 91.6555 54.8663C91.9591 54.8663 92.2627 54.823 92.5229 54.7798C92.7832 54.7366 93.0434 54.607 93.3904 54.4774L93.6506 55.0823C93.3036 55.2551 93 55.3848 92.653 55.4712C92.3061 55.5576 91.9591 55.6008 91.6121 55.6008C91.135 55.6008 90.7446 55.5144 90.3976 55.3848C90.0507 55.2551 89.8338 55.0391 89.6603 54.7798C89.4868 54.5206 89.3567 54.2181 89.3133 53.8725C89.2266 53.5268 89.2266 53.1811 89.2266 52.8354C89.2266 52.5762 89.2699 52.3169 89.3133 51.9713C89.3567 51.6256 89.4868 51.3231 89.6603 51.0639C89.8338 50.7614 90.094 50.5022 90.3976 50.3293C90.5711 50.0701 90.9615 49.9836 91.482 49.9836ZM91.482 50.675C91.2651 50.675 91.0482 50.7182 90.8747 50.8046C90.7012 50.891 90.5711 51.0207 90.441 51.1503C90.3109 51.2799 90.2241 51.496 90.1808 51.6688C90.1374 51.8848 90.094 52.1009 90.0506 52.3169H92.7398C92.7398 52.1009 92.6964 51.8416 92.653 51.6688C92.6097 51.4527 92.5229 51.2799 92.4362 51.1503C92.3494 50.9774 92.2193 50.891 92.0458 50.8046C91.9157 50.7182 91.6988 50.675 91.482 50.675Z" fill="#2B7CAC"/>
<path d="M102.326 52.8357C102.326 53.1814 102.283 53.527 102.196 53.8727C102.109 54.2184 101.979 54.5208 101.806 54.7801C101.632 55.0394 101.372 55.2554 101.068 55.4282C100.765 55.6011 100.374 55.6875 99.8972 55.6875C99.4635 55.6875 99.0732 55.6011 98.7695 55.4714C98.4659 55.2986 98.2491 55.1258 98.0322 54.8665C97.8153 54.6073 97.7286 54.3048 97.6418 54.0023C97.5551 53.6567 97.5117 53.311 97.5117 52.9653C97.5117 52.6196 97.5551 52.2308 97.6418 51.9283C97.7286 51.6258 97.8587 51.2802 98.0756 51.0209C98.2491 50.7617 98.5093 50.5456 98.8129 50.3728C99.1165 50.1999 99.5069 50.1135 99.9406 50.1135C100.374 50.1135 100.765 50.1999 101.068 50.3728C101.372 50.5456 101.632 50.7617 101.806 51.0209C101.979 51.2802 102.109 51.5826 102.196 51.9283C102.283 52.1011 102.326 52.49 102.326 52.8357ZM101.415 52.8357C101.415 52.6196 101.415 52.3604 101.372 52.1011C101.329 51.8419 101.285 51.6258 101.155 51.4098C101.068 51.1938 100.895 51.0209 100.721 50.8913C100.548 50.7617 100.288 50.6752 100.027 50.6752C99.7237 50.6752 99.4635 50.7185 99.29 50.8481C99.0732 50.9777 98.943 51.1505 98.8129 51.3234C98.6828 51.5394 98.6394 51.7555 98.5527 52.0147C98.5093 52.274 98.4659 52.5332 98.4659 52.7925C98.4659 53.0517 98.4659 53.311 98.5093 53.5702C98.5527 53.8295 98.596 54.0455 98.7262 54.2184C98.8129 54.3912 98.9864 54.5641 99.1599 54.6505C99.3334 54.7801 99.5936 54.8233 99.9406 54.8233C100.244 54.8233 100.461 54.7801 100.678 54.6505C100.851 54.5208 101.025 54.3912 101.112 54.1752C101.198 54.0023 101.285 53.7431 101.329 53.527C101.372 53.3542 101.415 53.0949 101.415 52.8357Z" fill="#2B7CAC"/>
<path d="M125.444 34.947V57.1565H121.107V38.663H112.128V57.1565H107.791V34.947H125.444Z" fill="#F6784F"/>
<path d="M144.137 53.1382C143.703 54.2184 142.055 57.6319 137.024 57.6319C134.682 57.6319 132.904 56.9838 131.472 55.6011C129.867 54.0888 129.217 52.2308 129.217 49.9839C129.217 47.1321 130.388 45.3606 131.429 44.3235C133.12 42.6384 135.159 42.2927 136.894 42.2927C139.843 42.2927 141.535 43.4594 142.532 44.6692C144.05 46.484 144.267 48.7741 144.267 50.3296V50.6753H133.424C133.424 51.5394 133.641 52.49 134.118 53.095C134.552 53.6999 135.463 54.4777 137.024 54.4777C138.542 54.4777 139.713 53.7431 140.407 52.5765L144.137 53.1382ZM140.364 48.0395C140.017 46.0951 138.412 45.1445 136.937 45.1445C135.419 45.1445 133.858 46.0951 133.511 48.0395H140.364Z" fill="#F6784F"/>
<path d="M155.588 52.2306C154.547 52.4466 153.376 52.5763 152.161 52.5763C151.077 52.5763 149.385 52.4466 148.127 51.2368C146.956 50.1566 146.826 48.9035 146.826 47.8233V42.7246H150.903V47.0023C150.903 47.5208 150.903 48.0825 151.424 48.5578C151.988 49.0763 152.942 49.0763 153.506 49.0763C154.243 49.0763 154.894 48.9899 155.631 48.8603V42.7246H159.708V57.1564H155.631L155.588 52.2306Z" fill="#F6784F"/>
<path d="M177.752 53.1382C177.319 54.2184 175.67 57.6319 170.639 57.6319C168.297 57.6319 166.519 56.9838 165.087 55.6011C163.483 54.0888 162.832 52.2308 162.832 49.9839C162.832 47.1321 164.003 45.3606 165.044 44.3235C166.736 42.6384 168.774 42.2927 170.509 42.2927C173.458 42.2927 175.15 43.4594 176.148 44.6692C177.666 46.484 177.883 48.7741 177.883 50.3296V50.6753H167.039C167.039 51.5394 167.256 52.49 167.733 53.095C168.167 53.6999 169.078 54.4777 170.639 54.4777C172.157 54.4777 173.328 53.7431 174.022 52.5765L177.752 53.1382ZM174.022 48.0395C173.675 46.0951 172.071 45.1445 170.596 45.1445C169.121 45.1445 167.516 46.0951 167.169 48.0395H174.022Z" fill="#F6784F"/>
<path d="M181.004 42.7246H185.081V47.8233H190.763V42.7246H194.84V57.1564H190.763V51.28H185.081V57.1564H181.004V42.7246Z" fill="#F6784F"/>
<path d="M202.778 42.7246V51.6257L209.458 42.7246H213.535V57.1564H209.458V48.2554L202.778 57.1564H198.701V42.7246H202.778Z" fill="#F6784F"/>
</svg>
