<svg width="21" height="33" viewBox="0 0 21 33" fill="none" xmlns="http://www.w3.org/2000/svg">
<path d="M10.014 17.3562C14.8067 17.3562 18.6921 13.4709 18.6921 8.67805C18.6921 3.88524 14.8068 0 10.014 0C5.22118 0 1.33594 3.8853 1.33594 8.67811C1.34182 13.4684 5.22368 17.3503 10.014 17.3562ZM10.014 4.00527C12.5947 4.00527 14.6868 6.09734 14.6868 8.67811C14.6868 11.2589 12.5948 13.351 10.014 13.351C7.43322 13.351 5.34115 11.2589 5.34115 8.67811C5.34115 6.09734 7.43328 4.00527 10.014 4.00527Z" fill="white"/>
<path d="M18.5139 21.4682C19.457 20.847 20.0252 19.7938 20.0266 18.6645C20.0397 17.7272 19.5108 16.8666 18.6688 16.4549C17.8036 16.0227 16.768 16.1201 15.9986 16.7059C12.4324 19.3058 7.59563 19.3058 4.02949 16.7059C3.25885 16.1231 2.22506 16.0259 1.35929 16.4549C0.517622 16.8665 -0.0115127 17.7262 0.000190215 18.6631C0.00219285 19.7922 0.570253 20.8451 1.51287 21.4668C2.72221 22.271 4.03919 22.9003 5.42471 23.3359C5.6597 23.4089 5.90221 23.4766 6.15235 23.5389L2.11773 27.4841C1.05933 28.511 1.03374 30.2014 2.06065 31.2599C3.08757 32.3183 4.77798 32.3439 5.83643 31.3169C5.85846 31.2955 5.88012 31.2738 5.9014 31.2517L10.0135 26.9954L14.1336 31.2597C15.1596 32.3189 16.8501 32.3458 17.9093 31.3198C18.9685 30.2937 18.9954 28.6032 17.9694 27.544C17.9479 27.5219 17.9261 27.5001 17.9039 27.4787L13.8759 23.5375C14.126 23.4734 14.3694 23.4053 14.6062 23.3332C15.9902 22.8993 17.3059 22.2713 18.5139 21.4682Z" fill="white"/>
</svg>
