<svg width="295" height="5629" viewBox="0 0 295 5629" fill="none" xmlns="http://www.w3.org/2000/svg">
<g filter="url(#filter0_d)">
<rect width="285" height="5629" fill="#DCF9F7"/>
</g>
<path d="M175 640L185 630L195 640L205 630L215 640L225 630L235 640" stroke="url(#paint0_linear)" stroke-width="2" stroke-linecap="round"/>
<circle cx="212" cy="543" r="3" fill="white"/>
<circle cx="212" cy="553" r="3" fill="white"/>
<circle cx="222" cy="543" r="3" fill="white"/>
<circle cx="222" cy="553" r="3" fill="white"/>
<circle cx="232" cy="543" r="3" fill="white"/>
<circle cx="232" cy="553" r="3" fill="white"/>
<circle cx="242" cy="543" r="3" fill="white"/>
<circle cx="242" cy="553" r="3" fill="white"/>
<circle cx="260" cy="305" r="5" transform="rotate(-90 260 305)" fill="url(#paint1_linear)"/>
<circle cx="260" cy="324" r="5" transform="rotate(-90 260 324)" fill="url(#paint2_linear)"/>
<circle cx="260" cy="343" r="5" transform="rotate(-90 260 343)" fill="url(#paint3_linear)"/>
<circle cx="260" cy="362" r="5" transform="rotate(-90 260 362)" fill="url(#paint4_linear)"/>
<defs>
<filter id="filter0_d" x="-10" y="-5" width="305" height="5649" filterUnits="userSpaceOnUse" color-interpolation-filters="sRGB">
<feFlood flood-opacity="0" result="BackgroundImageFix"/>
<feColorMatrix in="SourceAlpha" type="matrix" values="0 0 0 0 0 0 0 0 0 0 0 0 0 0 0 0 0 0 127 0"/>
<feMorphology radius="5" operator="erode" in="SourceAlpha" result="effect1_dropShadow"/>
<feOffset dy="5"/>
<feGaussianBlur stdDeviation="7.5"/>
<feColorMatrix type="matrix" values="0 0 0 0 0.75 0 0 0 0 0.75 0 0 0 0 0.75 0 0 0 0.25 0"/>
<feBlend mode="normal" in2="BackgroundImageFix" result="effect1_dropShadow"/>
<feBlend mode="normal" in="SourceGraphic" in2="effect1_dropShadow" result="shape"/>
</filter>
<linearGradient id="paint0_linear" x1="175" y1="635" x2="235" y2="635" gradientUnits="userSpaceOnUse">
<stop stop-color="#F0F865"/>
<stop offset="1" stop-color="#D01F0D"/>
</linearGradient>
<linearGradient id="paint1_linear" x1="260" y1="300" x2="260" y2="310" gradientUnits="userSpaceOnUse">
<stop stop-color="#51A46C"/>
<stop offset="1" stop-color="#DFD340"/>
</linearGradient>
<linearGradient id="paint2_linear" x1="260" y1="319" x2="260" y2="329" gradientUnits="userSpaceOnUse">
<stop stop-color="#51A46C"/>
<stop offset="1" stop-color="#DFD340"/>
</linearGradient>
<linearGradient id="paint3_linear" x1="260" y1="338" x2="260" y2="348" gradientUnits="userSpaceOnUse">
<stop stop-color="#51A46C"/>
<stop offset="1" stop-color="#DFD340"/>
</linearGradient>
<linearGradient id="paint4_linear" x1="260" y1="357" x2="260" y2="367" gradientUnits="userSpaceOnUse">
<stop stop-color="#51A46C"/>
<stop offset="1" stop-color="#DFD340"/>
</linearGradient>
</defs>
</svg>
