<svg width="32" height="26" viewBox="0 0 32 26" fill="none" xmlns="http://www.w3.org/2000/svg">
<path d="M32 3.60974C30.81 4.11543 29.542 4.45062 28.22 4.61337C29.58 3.82674 30.618 2.59062 31.106 1.10068C29.838 1.83305 28.438 2.35037 26.946 2.63905C25.742 1.39712 24.026 0.62793 22.154 0.62793C18.522 0.62793 15.598 3.4838 15.598 6.98487C15.598 7.48862 15.642 7.97299 15.75 8.43412C10.296 8.17643 5.47 5.64412 2.228 1.78655C1.662 2.73787 1.33 3.82674 1.33 4.99893C1.33 7.19993 2.5 9.15099 4.244 10.2806C3.19 10.2612 2.156 9.96474 1.28 9.4978C1.28 9.51718 1.28 9.54237 1.28 9.56755C1.28 12.6559 3.554 15.2212 6.536 15.8121C6.002 15.9536 5.42 16.0214 4.816 16.0214C4.396 16.0214 3.972 15.9981 3.574 15.9129C4.424 18.4297 6.836 20.28 9.704 20.3401C7.472 22.0315 4.638 23.0506 1.57 23.0506C1.032 23.0506 0.516 23.0274 0 22.9634C2.906 24.7789 6.35 25.8154 10.064 25.8154C22.136 25.8154 28.736 16.1279 28.736 7.7308C28.736 7.44987 28.726 7.17862 28.712 6.90931C30.014 6.01418 31.108 4.89624 32 3.60974Z" fill="white"/>
</svg>
