<svg width="33" height="20" viewBox="0 0 33 20" fill="none" xmlns="http://www.w3.org/2000/svg">
<path d="M15.6929 19.14H17.6094C17.6094 19.14 18.1887 19.0759 18.4834 18.7571C18.756 18.4644 18.746 17.9152 18.746 17.9152C18.746 17.9152 18.7079 15.3432 19.9027 14.9643C21.0794 14.5914 22.5909 17.4501 24.1927 18.5506C25.4035 19.3826 26.3236 19.2001 26.3236 19.2001L30.6076 19.14C30.6076 19.14 32.8488 19.0017 31.7863 17.2396C31.7001 17.0952 31.1669 15.9366 28.6009 13.555C25.9147 11.0612 26.2755 11.4662 29.511 7.15414C31.4816 4.52804 32.2694 2.92431 32.0229 2.23872C31.7883 1.5852 30.339 1.7576 30.339 1.7576L25.5198 1.78567C25.5198 1.78567 25.1629 1.73756 24.8963 1.89592C24.6377 2.05229 24.4713 2.41313 24.4713 2.41313C24.4713 2.41313 23.7075 4.44585 22.6892 6.17387C20.5422 9.82034 19.6822 10.0128 19.3314 9.78626C18.5155 9.25904 18.72 7.66533 18.72 6.53471C18.72 3.00049 19.2552 1.52707 17.6755 1.14618C17.1503 1.01989 16.7654 0.935692 15.4243 0.92166C13.7043 0.903618 12.2469 0.927674 11.423 1.33061C10.8737 1.59923 10.4507 2.19863 10.7093 2.23271C11.0281 2.2748 11.7498 2.42716 12.1326 2.94837C12.6278 3.61993 12.6098 5.13144 12.6098 5.13144C12.6098 5.13144 12.8944 9.29111 11.9462 9.80831C11.2947 10.1631 10.4026 9.43946 8.48817 6.12976C7.50789 4.43583 6.76617 2.56147 6.76617 2.56147C6.76617 2.56147 6.62384 2.21266 6.36925 2.02623C6.06053 1.7997 5.62752 1.72753 5.62752 1.72753L1.04487 1.7556C1.04487 1.7556 0.357277 1.77564 0.10469 2.07434C-0.119832 2.34096 0.0866479 2.89023 0.0866479 2.89023C0.0866479 2.89023 3.67499 11.2837 7.73643 15.5156C11.4631 19.3946 15.6929 19.14 15.6929 19.14Z" fill="white"/>
</svg>
