<svg width="25" height="15" viewBox="0 0 25 15" fill="none" xmlns="http://www.w3.org/2000/svg">
<path d="M12.2283 14.1994H13.7217C13.7217 14.1994 14.1731 14.1494 14.4027 13.9011C14.6152 13.673 14.6074 13.245 14.6074 13.245C14.6074 13.245 14.5777 11.2409 15.5087 10.9456C16.4256 10.6551 17.6034 12.8826 18.8515 13.7402C19.795 14.3884 20.512 14.2463 20.512 14.2463L23.8502 14.1994C23.8502 14.1994 25.5966 14.0916 24.7687 12.7186C24.7015 12.6061 24.286 11.7032 22.2865 9.84748C20.1933 7.90425 20.4745 8.21979 22.9957 4.85976C24.5312 2.81344 25.1451 1.56377 24.953 1.02954C24.7702 0.520305 23.6409 0.654644 23.6409 0.654644L19.8856 0.676513C19.8856 0.676513 19.6076 0.639023 19.3998 0.762427C19.1983 0.884269 19.0686 1.16544 19.0686 1.16544C19.0686 1.16544 18.4735 2.74939 17.68 4.0959C16.007 6.93733 15.3368 7.08729 15.0635 6.91077C14.4277 6.49994 14.587 5.25809 14.587 4.37708C14.587 1.62313 15.0041 0.475004 13.7732 0.178209C13.3639 0.0797983 13.064 0.014191 12.019 0.00325649C10.6787 -0.0108022 9.54309 0.00794272 8.90107 0.321921C8.47306 0.531239 8.14347 0.998301 8.34497 1.02486C8.59334 1.05766 9.15569 1.17638 9.45405 1.58252C9.83988 2.10582 9.82582 3.28362 9.82582 3.28362C9.82582 3.28362 10.0476 6.52494 9.30878 6.92795C8.8011 7.20444 8.10598 6.64053 6.61419 4.06154C5.85033 2.74158 5.27237 1.28104 5.27237 1.28104C5.27237 1.28104 5.16146 1.00924 4.96307 0.863962C4.72251 0.687447 4.3851 0.631213 4.3851 0.631213L0.814192 0.653082C0.814192 0.653082 0.278399 0.668703 0.0815768 0.901452C-0.093376 1.10921 0.0675181 1.53722 0.0675181 1.53722C0.0675181 1.53722 2.86364 8.07764 6.02841 11.3752C8.93232 14.3978 12.2283 14.1994 12.2283 14.1994Z" fill="#323232"/>
</svg>
