<svg width="17" height="25" viewBox="0 0 17 25" fill="none" xmlns="http://www.w3.org/2000/svg">
<path d="M8.79731 13.5243C12.5319 13.5243 15.5595 10.4968 15.5595 6.76215C15.5595 3.02747 12.532 0 8.79731 0C5.06263 0 2.03516 3.02752 2.03516 6.7622C2.03974 10.4949 5.06458 13.5198 8.79731 13.5243ZM8.79731 3.12101C10.8083 3.12101 12.4385 4.7512 12.4385 6.7622C12.4385 8.7732 10.8083 10.4034 8.79731 10.4034C6.7863 10.4034 5.15611 8.7732 5.15611 6.7622C5.15611 4.7512 6.78635 3.12101 8.79731 3.12101Z" fill="#323232"/>
<path d="M15.4186 16.7288C16.1535 16.2448 16.5963 15.4241 16.5974 14.5441C16.6076 13.8138 16.1955 13.1432 15.5393 12.8224C14.8652 12.4856 14.0582 12.5615 13.4587 13.018C10.6798 15.0438 6.91088 15.0438 4.13207 13.018C3.53157 12.5639 2.72601 12.4881 2.05138 12.8224C1.39553 13.1431 0.983217 13.813 0.992336 14.5431C0.993896 15.4229 1.43654 16.2433 2.17105 16.7278C3.1134 17.3545 4.13963 17.8448 5.21925 18.1842C5.40237 18.2411 5.59133 18.2938 5.78625 18.3424L2.64237 21.4166C1.81765 22.2168 1.7977 23.534 2.5979 24.3588C3.3981 25.1835 4.71531 25.2034 5.54008 24.4032C5.55725 24.3866 5.57412 24.3696 5.5907 24.3524L8.79495 21.0358L12.0054 24.3586C12.805 25.184 14.1222 25.2049 14.9476 24.4054C15.7729 23.6059 15.7939 22.2887 14.9944 21.4633C14.9777 21.446 14.9606 21.4291 14.9433 21.4124L11.8046 18.3413C11.9995 18.2914 12.1892 18.2383 12.3737 18.1822C13.4521 17.844 14.4774 17.3547 15.4186 16.7288Z" fill="#323232"/>
</svg>
