<svg width="26" height="20" viewBox="0 0 26 20" fill="none" xmlns="http://www.w3.org/2000/svg">
<path d="M25.1285 2.3235C24.2013 2.71755 23.2132 2.97873 22.1831 3.10555C23.2428 2.49259 24.0517 1.52937 24.4319 0.368378C23.4439 0.939063 22.3529 1.34217 21.1903 1.56712C20.2522 0.59937 18.915 0 17.4563 0C14.6262 0 12.3477 2.22537 12.3477 4.95348C12.3477 5.34601 12.382 5.72345 12.4661 6.08277C8.21625 5.88197 4.45572 3.90874 1.92947 0.902829C1.48843 1.64411 1.22973 2.49259 1.22973 3.40599C1.22973 5.12106 2.14142 6.64138 3.50039 7.52156C2.67909 7.50646 1.87337 7.27547 1.19077 6.91162C1.19077 6.92672 1.19077 6.94635 1.19077 6.96597C1.19077 9.37251 2.96272 11.3714 5.28637 11.8319C4.87026 11.9421 4.41676 11.9949 3.9461 11.9949C3.61883 11.9949 3.28844 11.9768 2.97831 11.9104C3.64065 13.8716 5.52014 15.3134 7.75495 15.3602C6.01572 16.6782 3.8074 17.4723 1.41674 17.4723C0.997519 17.4723 0.595439 17.4542 0.193359 17.4044C2.45779 18.819 5.14143 19.6267 8.03547 19.6267C17.4423 19.6267 22.5852 12.078 22.5852 5.53473C22.5852 5.31582 22.5774 5.10446 22.5665 4.8946C23.581 4.1971 24.4335 3.32597 25.1285 2.3235Z" fill="#323232"/>
</svg>
