<svg width="14" height="25" viewBox="0 0 14 25" fill="none" xmlns="http://www.w3.org/2000/svg">
<path d="M0.999882 12.8655H3.73316V23.7663C3.73316 23.9816 3.91316 24.156 4.13533 24.156H8.76972C8.9919 24.156 9.1719 23.9816 9.1719 23.7663V12.9168H12.3141C12.5184 12.9168 12.6903 12.7683 12.7136 12.5717L13.1908 8.55857C13.2039 8.44817 13.1679 8.33758 13.0916 8.25473C13.0153 8.17184 12.906 8.12437 12.7914 8.12437H9.17209V5.60871C9.17209 4.85039 9.59356 4.46583 10.425 4.46583C10.5435 4.46583 12.7914 4.46583 12.7914 4.46583C13.0136 4.46583 13.1936 4.29136 13.1936 4.07622V0.392487C13.1936 0.177254 13.0136 0.00287796 12.7914 0.00287796H9.5301C9.50711 0.00179282 9.45602 0 9.38073 0C8.81487 0 6.84796 0.107617 5.29423 1.49229C3.57273 3.02676 3.81205 4.86398 3.86923 5.18254V8.12428H0.999833C0.777657 8.12428 0.597656 8.29866 0.597656 8.51389V12.4758C0.597705 12.691 0.777706 12.8655 0.999882 12.8655Z" fill="#323232"/>
</svg>
